<svg version="1.1" id="Layer_1" xmlns="http://www.w3.org/2000/svg" xmlns:xlink="http://www.w3.org/1999/xlink" x="0px" y="0px"
	 width="100%" viewBox="0 0 1536 1024" enable-background="new 0 0 1536 1024" xml:space="preserve">
<path fill="#FFFFFF" opacity="1.000000" stroke="none" 
	d="
M1096.000000,1025.000000 
	C730.666687,1025.000000 365.833344,1025.000000 1.000000,1025.000000 
	C1.000000,683.666687 1.000000,342.333344 1.000000,1.000000 
	C513.000000,1.000000 1025.000000,1.000000 1537.000000,1.000000 
	C1537.000000,342.333344 1537.000000,683.666687 1537.000000,1025.000000 
	C1390.166626,1025.000000 1243.333374,1025.000000 1096.000000,1025.000000 
M618.127747,785.658386 
	C618.434265,784.885864 618.750610,784.117126 619.045898,783.340332 
	C626.810425,762.915161 636.891724,743.885986 652.779663,728.487671 
	C681.093811,701.046082 719.001038,699.182800 749.571167,723.879578 
	C767.291626,738.195435 779.071960,756.989441 786.602295,778.091064 
	C792.391113,794.312744 796.075195,811.282288 800.839172,827.877930 
	C801.330566,829.589600 802.500061,831.739685 803.923767,832.342224 
	C804.985229,832.791504 807.295776,831.406799 808.471863,830.250732 
	C811.552490,827.222412 814.535706,824.040894 817.170349,820.621948 
	C831.185730,802.434753 840.106934,781.688660 846.972412,759.995056 
	C857.807678,725.757874 861.627991,690.392395 862.821899,654.725891 
	C863.843323,624.209045 861.740051,593.803284 856.753540,563.667603 
	C849.712402,521.115784 836.321960,480.673859 814.821289,443.175140 
	C801.014465,419.095093 784.101868,397.549377 760.089539,382.668793 
	C727.668335,362.577209 693.835999,359.695709 659.262268,376.374207 
	C632.938110,389.073029 614.225464,410.270782 598.705505,434.417358 
	C568.903137,480.785095 554.788025,532.490173 548.014221,586.522156 
	C543.899414,619.344788 543.813660,652.291260 546.851257,685.236511 
	C549.749207,716.668518 555.313293,747.513062 566.916931,777.048157 
	C574.507324,796.368408 583.484375,814.884094 597.894104,830.190369 
	C599.280640,831.663269 601.909485,832.978821 603.711121,832.707031 
	C604.997437,832.513000 606.325378,829.664185 606.844360,827.782043 
	C610.639526,814.018677 614.234863,800.200195 618.127747,785.658386 
M1084.496094,836.038330 
	C1101.181641,832.520142 1116.621460,825.958984 1130.321655,815.871704 
	C1165.678223,789.839111 1190.313110,755.756104 1205.237061,714.554260 
	C1207.973633,706.999329 1207.060303,705.464966 1199.047485,705.164062 
	C1186.468750,704.691650 1174.752441,701.027588 1163.774902,695.242249 
	C1135.841431,680.520569 1116.474609,657.845703 1103.966064,629.143188 
	C1092.251587,602.263062 1086.828369,574.282898 1093.544922,545.329285 
	C1104.255127,499.160004 1128.201904,463.462585 1175.304810,447.455536 
	C1179.259277,446.111725 1179.829590,444.359467 1177.658447,440.878754 
	C1151.070068,398.252228 1114.774170,371.313263 1063.031372,367.596771 
	C1024.629639,364.838531 992.347351,377.393005 964.954163,403.584686 
	C938.501404,428.877014 921.180054,460.029938 908.885864,494.085388 
	C891.892822,541.156921 887.286987,589.586792 893.855774,639.189270 
	C898.096252,671.210327 905.425598,702.345032 919.089722,731.747620 
	C934.193481,764.248047 954.157654,793.036316 983.854004,814.017151 
	C1013.974304,835.297546 1047.073853,843.748474 1084.496094,836.038330 
M358.143005,385.327271 
	C361.613068,405.643341 362.017059,426.060547 360.080322,446.543732 
	C356.933014,479.829559 347.093811,510.855133 326.951019,537.814819 
	C294.002441,581.914124 250.769455,603.438660 194.941971,595.685852 
	C190.359818,595.049561 188.766510,596.770874 188.964249,601.052429 
	C189.294510,608.204163 189.514114,615.361267 189.870773,622.511597 
	C191.804214,661.273438 199.770065,698.653076 215.825928,734.116150 
	C228.487854,762.082825 245.226669,787.124207 269.664154,806.266418 
	C312.359009,839.710083 363.963867,844.022461 408.243896,818.003174 
	C439.655945,799.545105 461.738831,772.397949 478.959076,740.956360 
	C498.780518,704.765503 510.468567,665.940186 515.253174,625.012512 
	C518.883667,593.957275 519.430420,562.944641 514.025757,531.980713 
	C507.183136,492.778442 493.960114,456.079285 470.661102,423.578857 
	C450.857971,395.954895 424.700989,377.089752 391.093475,369.661316 
	C379.537994,367.107147 367.805756,366.177826 355.471649,368.591614 
	C356.340698,374.023407 357.175293,379.240143 358.143005,385.327271 
M1037.788940,183.686295 
	C1004.765320,166.406708 964.550537,175.798248 943.038391,206.145477 
	C924.759216,231.931686 921.892029,260.245270 931.117920,289.901031 
	C946.477600,339.273163 1005.928345,359.305481 1047.038086,328.617615 
	C1073.092407,309.168396 1083.171997,281.987030 1080.191772,250.051514 
	C1077.494873,221.153152 1063.832520,198.785461 1037.788940,183.686295 
M338.763489,284.714050 
	C342.989685,293.690247 346.047058,303.481171 351.639618,311.505005 
	C379.402557,351.337708 436.399811,354.022369 467.684479,317.476685 
	C492.456512,288.538879 495.338470,241.586166 474.295624,209.767761 
	C443.882172,163.780304 379.389435,163.277817 349.360962,209.130493 
	C334.278046,232.161682 332.050262,257.531128 338.763489,284.714050 
M781.095764,258.513824 
	C780.983826,235.447952 773.989929,214.989731 757.817383,198.167038 
	C726.739563,165.839798 676.706787,167.680801 648.215698,202.103317 
	C624.058533,231.289642 621.532166,276.913391 642.321411,308.546417 
	C665.806763,344.281921 711.149292,354.162445 745.424927,330.504089 
	C770.090332,313.479156 780.836975,289.012695 781.095764,258.513824 
z"/>
<path fill="#20B8F1" opacity="1.000000" stroke="none" 
	d="
M618.010498,786.028748 
	C614.234863,800.200195 610.639526,814.018677 606.844360,827.782043 
	C606.325378,829.664185 604.997437,832.513000 603.711121,832.707031 
	C601.909485,832.978821 599.280640,831.663269 597.894104,830.190369 
	C583.484375,814.884094 574.507324,796.368408 566.916931,777.048157 
	C555.313293,747.513062 549.749207,716.668518 546.851257,685.236511 
	C543.813660,652.291260 543.899414,619.344788 548.014221,586.522156 
	C554.788025,532.490173 568.903137,480.785095 598.705505,434.417358 
	C614.225464,410.270782 632.938110,389.073029 659.262268,376.374207 
	C693.835999,359.695709 727.668335,362.577209 760.089539,382.668793 
	C784.101868,397.549377 801.014465,419.095093 814.821289,443.175140 
	C836.321960,480.673859 849.712402,521.115784 856.753540,563.667603 
	C861.740051,593.803284 863.843323,624.209045 862.821899,654.725891 
	C861.627991,690.392395 857.807678,725.757874 846.972412,759.995056 
	C840.106934,781.688660 831.185730,802.434753 817.170349,820.621948 
	C814.535706,824.040894 811.552490,827.222412 808.471863,830.250732 
	C807.295776,831.406799 804.985229,832.791504 803.923767,832.342224 
	C802.500061,831.739685 801.330566,829.589600 800.839172,827.877930 
	C796.075195,811.282288 792.391113,794.312744 786.602295,778.091064 
	C779.071960,756.989441 767.291626,738.195435 749.571167,723.879578 
	C719.001038,699.182800 681.093811,701.046082 652.779663,728.487671 
	C636.891724,743.885986 626.810425,762.915161 619.045898,783.340332 
	C618.750610,784.117126 618.434265,784.885864 618.010498,786.028748 
z"/>
<path fill="#F49E24" opacity="1.000000" stroke="none" 
	d="
M1084.080322,836.123535 
	C1047.073853,843.748474 1013.974304,835.297546 983.854004,814.017151 
	C954.157654,793.036316 934.193481,764.248047 919.089722,731.747620 
	C905.425598,702.345032 898.096252,671.210327 893.855774,639.189270 
	C887.286987,589.586792 891.892822,541.156921 908.885864,494.085388 
	C921.180054,460.029938 938.501404,428.877014 964.954163,403.584686 
	C992.347351,377.393005 1024.629639,364.838531 1063.031372,367.596771 
	C1114.774170,371.313263 1151.070068,398.252228 1177.658447,440.878754 
	C1179.829590,444.359467 1179.259277,446.111725 1175.304810,447.455536 
	C1128.201904,463.462585 1104.255127,499.160004 1093.544922,545.329285 
	C1086.828369,574.282898 1092.251587,602.263062 1103.966064,629.143188 
	C1116.474609,657.845703 1135.841431,680.520569 1163.774902,695.242249 
	C1174.752441,701.027588 1186.468750,704.691650 1199.047485,705.164062 
	C1207.060303,705.464966 1207.973633,706.999329 1205.237061,714.554260 
	C1190.313110,755.756104 1165.678223,789.839111 1130.321655,815.871704 
	C1116.621460,825.958984 1101.181641,832.520142 1084.080322,836.123535 
z"/>
<path fill="#7FC424" opacity="1.000000" stroke="none" 
	d="
M358.076477,384.892090 
	C357.175293,379.240143 356.340698,374.023407 355.471649,368.591614 
	C367.805756,366.177826 379.537994,367.107147 391.093475,369.661316 
	C424.700989,377.089752 450.857971,395.954895 470.661102,423.578857 
	C493.960114,456.079285 507.183136,492.778442 514.025757,531.980713 
	C519.430420,562.944641 518.883667,593.957275 515.253174,625.012512 
	C510.468567,665.940186 498.780518,704.765503 478.959076,740.956360 
	C461.738831,772.397949 439.655945,799.545105 408.243896,818.003174 
	C363.963867,844.022461 312.359009,839.710083 269.664154,806.266418 
	C245.226669,787.124207 228.487854,762.082825 215.825928,734.116150 
	C199.770065,698.653076 191.804214,661.273438 189.870773,622.511597 
	C189.514114,615.361267 189.294510,608.204163 188.964249,601.052429 
	C188.766510,596.770874 190.359818,595.049561 194.941971,595.685852 
	C250.769455,603.438660 294.002441,581.914124 326.951019,537.814819 
	C347.093811,510.855133 356.933014,479.829559 360.080322,446.543732 
	C362.017059,426.060547 361.613068,405.643341 358.076477,384.892090 
z"/>
<path fill="#F39E24" opacity="1.000000" stroke="none" 
	d="
M1038.109131,183.868866 
	C1063.832520,198.785461 1077.494873,221.153152 1080.191772,250.051514 
	C1083.171997,281.987030 1073.092407,309.168396 1047.038086,328.617615 
	C1005.928345,359.305481 946.477600,339.273163 931.117920,289.901031 
	C921.892029,260.245270 924.759216,231.931686 943.038391,206.145477 
	C964.550537,175.798248 1004.765320,166.406708 1038.109131,183.868866 
z"/>
<path fill="#7FC425" opacity="1.000000" stroke="none" 
	d="
M338.647644,284.320129 
	C332.050262,257.531128 334.278046,232.161682 349.360962,209.130493 
	C379.389435,163.277817 443.882172,163.780304 474.295624,209.767761 
	C495.338470,241.586166 492.456512,288.538879 467.684479,317.476685 
	C436.399811,354.022369 379.402557,351.337708 351.639618,311.505005 
	C346.047058,303.481171 342.989685,293.690247 338.647644,284.320129 
z"/>
<path fill="#20B8F1" opacity="1.000000" stroke="none" 
	d="
M781.097168,259.006897 
	C780.836975,289.012695 770.090332,313.479156 745.424927,330.504089 
	C711.149292,354.162445 665.806763,344.281921 642.321411,308.546417 
	C621.532166,276.913391 624.058533,231.289642 648.215698,202.103317 
	C676.706787,167.680801 726.739563,165.839798 757.817383,198.167038 
	C773.989929,214.989731 780.983826,235.447952 781.097168,259.006897 
z"/>
</svg>