<svg version="1.1" id="Layer_1" xmlns="http://www.w3.org/2000/svg" xmlns:xlink="http://www.w3.org/1999/xlink" x="0px" y="0px"
	 width="100%" viewBox="0 0 445 250" enable-background="new 0 0 445 250" xml:space="preserve">
<path fill="#FEFFFE" opacity="1.000000" stroke="none" 
	d="
M337.000000,251.000000 
	C224.666687,251.000000 112.833374,251.000000 1.000045,251.000000 
	C1.000030,167.666702 1.000030,84.333405 1.000015,1.000079 
	C149.333267,1.000052 297.666534,1.000052 445.999878,1.000026 
	C445.999908,84.333260 445.999908,167.666519 445.999939,250.999878 
	C409.833344,251.000000 373.666656,251.000000 337.000000,251.000000 
M262.550354,219.924591 
	C262.692932,219.615387 262.835541,219.306198 263.003815,218.998978 
	C263.003815,218.998978 262.990692,218.976471 263.508270,218.677368 
	C263.712830,218.131989 263.917389,217.586609 264.035217,217.022232 
	C264.035217,217.022232 264.080750,217.098419 264.652527,216.722717 
	C265.435028,214.815735 266.217529,212.908752 267.000000,210.999390 
	C267.000000,210.999390 266.998230,210.994247 267.533722,210.614365 
	C267.983643,209.392838 268.433533,208.171295 269.404053,206.561539 
	C269.893616,205.374863 270.383209,204.188187 271.281769,202.469116 
	C271.903717,200.822922 272.525665,199.176727 273.719391,197.052185 
	C275.936310,192.043732 278.153198,187.035263 280.683807,181.741714 
	C280.683807,181.741714 280.727264,181.320038 280.976501,181.102005 
	C281.127747,180.914551 281.175018,180.703705 281.584137,180.099854 
	C281.714630,179.735626 281.845123,179.371399 282.173035,178.748566 
	C282.173035,178.748566 282.144165,178.424545 282.656250,177.989960 
	C283.061798,176.994492 283.467377,175.999023 284.104675,174.570648 
	C284.104675,174.570648 284.150360,174.081741 284.644623,173.685425 
	C285.296600,172.646591 285.948578,171.607773 286.949219,170.013412 
	C290.478333,177.502975 293.731384,184.392258 296.971832,191.287476 
	C301.003632,199.866592 304.754578,208.591400 309.128113,216.992310 
	C313.376709,225.153168 320.634094,229.644699 329.744415,229.736588 
	C338.663696,229.826553 346.315521,226.507156 351.150665,217.420105 
	C352.143707,215.088974 353.136749,212.757843 354.693359,209.946655 
	C357.160095,204.643112 359.626831,199.339569 362.629517,193.524902 
	C364.088165,190.295761 365.529144,187.058502 367.009186,183.839188 
	C370.046631,177.232147 373.105011,170.634720 376.754333,163.725708 
	C377.548676,161.844986 378.342987,159.964279 379.066193,158.008255 
	C379.066193,158.008255 379.085846,158.109970 379.613739,157.783875 
	C379.799835,157.202499 379.985931,156.621124 380.685974,155.589661 
	C385.503082,144.559830 390.320221,133.529984 395.621643,122.134338 
	C395.739349,121.758232 395.857056,121.382126 396.171509,120.749550 
	C396.171509,120.749550 396.128876,120.429131 396.580902,120.089584 
	C396.678284,119.735878 396.775665,119.382164 397.090607,118.671371 
	C397.090607,118.671371 397.101562,118.253372 397.636810,117.775787 
	C399.788116,113.001892 402.488831,108.385193 403.914215,103.403572 
	C405.023438,99.527138 404.544159,95.196159 404.823639,90.471649 
	C404.537445,89.981735 404.251251,89.491821 403.954437,88.285881 
	C401.665497,85.083031 399.865234,81.333931 397.002289,78.772728 
	C385.178772,68.195412 365.205505,69.984055 358.538391,86.556206 
	C350.259247,107.135277 340.293274,127.035736 330.398651,146.914062 
	C329.360809,145.229889 328.148621,143.627594 327.312988,141.848465 
	C321.156311,128.740906 314.941559,115.657860 309.008942,102.448608 
	C303.613739,90.435974 290.261169,85.126762 280.104340,88.891159 
	C278.042572,89.842636 275.980804,90.794113 273.247284,91.921806 
	C271.136383,94.017220 268.327911,95.756226 267.041962,98.273132 
	C262.737152,106.698807 258.976532,115.402512 254.490341,124.400398 
	C253.952438,125.822083 253.414551,127.243767 252.354904,129.073898 
	C251.956680,130.060593 251.558441,131.047302 250.918091,132.463043 
	C250.918091,132.463043 250.881439,132.954346 250.425629,133.292130 
	C250.269501,133.825455 250.113388,134.358795 249.462280,135.257019 
	C249.291595,135.833786 249.120911,136.410553 249.003159,136.994415 
	C249.003159,136.994415 248.969467,136.952911 248.485794,137.307556 
	C248.324188,137.871506 248.162567,138.435440 247.805862,139.242416 
	C247.805862,139.242416 247.848419,139.551147 247.350433,140.016937 
	C247.181137,140.661057 247.011841,141.305161 246.935638,141.955521 
	C246.935638,141.955521 246.917816,141.863922 246.440002,142.053589 
	C246.319107,142.363037 246.198196,142.672470 245.670547,143.488480 
	C245.371887,144.290894 245.073242,145.093307 244.313782,146.198792 
	C244.156509,146.713913 243.999237,147.229034 243.232391,147.723587 
	C242.456024,146.815872 241.679672,145.908142 240.891891,144.344086 
	C240.254623,143.232346 239.617371,142.120621 238.920456,140.287079 
	C229.594620,120.263748 220.268784,100.240417 210.579712,79.437180 
	C202.881195,84.107979 195.688690,88.471779 187.909973,92.835907 
	C187.276978,93.235046 186.643997,93.634178 185.309067,94.096626 
	C181.011627,96.530426 176.812698,99.165207 172.386002,101.335342 
	C168.751328,103.117188 168.143356,105.084763 170.944305,108.619102 
	C171.250748,109.091858 171.557175,109.564621 172.002960,110.664520 
	C172.291183,110.969627 172.579391,111.274742 172.792099,112.281052 
	C174.901047,116.968201 176.952026,121.682434 179.128372,126.338081 
	C193.324524,156.706711 207.568939,187.052811 221.746094,217.430298 
	C224.920868,224.232910 229.700531,228.720886 238.239456,229.733353 
	C242.208359,229.210571 246.177261,228.687790 250.125534,228.241318 
	C250.125534,228.241318 250.201202,228.264175 250.885223,228.256638 
	C252.278748,227.552887 253.672256,226.849136 255.717239,226.052078 
	C257.179016,224.808533 258.640808,223.564987 260.619171,222.063171 
	C260.796661,221.734161 260.974182,221.405151 261.064850,221.068420 
	C261.064850,221.068420 261.089142,221.152130 261.605438,220.982697 
	C261.772278,220.671738 261.939087,220.360779 262.026672,220.026001 
	C262.026672,220.026001 262.054840,220.103806 262.550354,219.924591 
M422.560425,66.903496 
	C422.827240,66.649399 423.094055,66.395302 423.981049,66.001305 
	C425.324585,64.679070 426.668152,63.356838 428.619415,61.721821 
	C433.117157,56.042377 435.349945,49.826466 433.294250,42.031635 
	C433.202179,41.682716 433.110107,41.333797 433.045624,40.488537 
	C433.045624,40.488537 432.866547,40.024796 432.909454,39.444141 
	C432.620758,38.958256 432.332062,38.472374 432.032501,37.382858 
	C431.702789,36.902325 431.373108,36.421787 430.999634,35.990147 
	C430.999634,35.990147 431.064117,35.978153 431.047882,35.375561 
	C430.710327,34.907303 430.372772,34.439041 430.000000,33.997013 
	C430.000000,33.997013 430.034760,33.965553 429.918915,33.301666 
	C428.653168,32.069954 427.387421,30.838243 425.941254,29.287937 
	C425.774384,29.094833 425.565369,28.975679 425.003021,28.321516 
	C424.365356,28.131086 423.727661,27.940655 423.040253,27.363844 
	C423.040253,27.363844 422.842865,27.027987 422.619995,26.371843 
	C412.682098,20.202761 399.707123,22.150562 391.957977,30.974869 
	C384.613373,39.338421 384.172821,51.797222 391.033630,60.641483 
	C391.033630,60.641483 391.318542,60.999157 391.406891,61.527142 
	C391.956238,61.956982 392.505554,62.386822 393.265900,63.380180 
	C394.052399,63.956833 394.838928,64.533485 395.948761,65.591148 
	C396.289093,65.756943 396.629456,65.922737 396.980469,66.010765 
	C396.980469,66.010765 396.917664,66.057838 397.244019,66.573578 
	C397.806519,66.774673 398.369049,66.975777 398.950623,67.081436 
	C398.950623,67.081436 398.853760,67.090759 399.056061,67.572578 
	C399.367950,67.703300 399.679840,67.834030 400.265656,68.157211 
	C400.265656,68.157211 400.600098,68.142059 401.162506,68.682663 
	C406.418732,70.845421 411.702423,71.886650 416.994263,69.032410 
	C416.994263,69.032410 417.054382,69.106377 417.546722,69.116272 
	C417.546722,69.116272 417.995667,68.913864 418.575897,68.927132 
	C419.054688,68.631386 419.533447,68.335640 420.610504,68.030052 
	C421.068420,67.686317 421.526337,67.342575 422.000427,67.003700 
	C422.000427,67.003700 422.003693,66.987534 422.560425,66.903496 
M16.857197,144.796936 
	C16.986132,145.852692 17.115068,146.908447 17.147985,148.530563 
	C17.361973,149.039948 17.575960,149.549347 17.763294,150.899918 
	C20.797873,159.769409 22.443106,169.456726 27.101511,177.370346 
	C50.373558,216.904495 85.166115,234.206177 131.727692,228.964569 
	C135.201248,228.112411 138.674805,227.260254 142.791565,226.373932 
	C143.195801,226.250610 143.600052,226.127274 144.663040,226.063919 
	C145.083618,225.943497 145.504181,225.823074 146.652679,225.653778 
	C151.736404,223.557419 156.820145,221.461060 162.519348,219.228363 
	C166.710190,216.542419 170.901031,213.856491 175.668915,211.040680 
	C176.106339,210.660507 176.543762,210.280350 177.470963,209.805450 
	C177.780411,209.630035 177.972534,209.368454 178.504211,208.906174 
	C178.808105,208.755905 178.995529,208.515015 179.598083,208.017410 
	C179.794067,207.714645 179.990051,207.411880 180.076340,207.100708 
	C180.076340,207.100708 180.149475,207.182907 180.779022,206.985764 
	C182.493530,205.313293 184.208038,203.640823 186.408554,201.774261 
	C186.594193,201.487610 186.779816,201.200958 187.582825,200.654282 
	C191.883438,197.463211 192.700287,193.780624 189.350266,189.340485 
	C188.373062,188.045319 187.761719,186.474075 187.004883,185.008667 
	C187.004883,185.008667 186.975723,185.008743 186.940002,184.331070 
	C186.088120,182.799484 185.236252,181.267899 184.384613,179.980515 
	C184.384613,179.980515 184.417847,179.738113 184.343353,179.090851 
	C183.920135,178.361359 183.496918,177.631851 183.021896,176.989319 
	C183.021896,176.989319 183.107956,176.936050 183.050461,176.197662 
	C179.901627,169.417877 176.752777,162.638092 173.281708,155.164505 
	C169.004852,159.779419 165.343018,163.730713 161.773361,167.824722 
	C161.773361,167.824722 161.758102,167.655502 161.214508,167.798050 
	C160.859192,168.216980 160.503860,168.635910 159.645660,169.210938 
	C159.433975,169.482117 159.222305,169.753296 158.501633,170.139038 
	C158.312866,170.421127 158.124100,170.703232 157.479507,171.097946 
	C157.172104,171.244949 156.988403,171.486176 156.301041,172.025558 
	C155.473999,172.983002 154.646957,173.940445 153.240936,175.051682 
	C152.491302,175.699570 151.741669,176.347473 150.229202,176.899109 
	C141.512283,179.840866 132.795364,182.782608 123.137505,185.632507 
	C115.746132,185.157761 108.354752,184.683014 100.333221,183.971069 
	C99.896172,184.016907 99.459114,184.062744 98.562805,184.006531 
	C98.562805,184.006531 98.093857,183.968826 97.761963,183.340561 
	C94.886818,182.155792 92.011673,180.971008 89.071373,179.879791 
	C89.071373,179.879791 89.182747,179.855362 88.831238,179.291107 
	C87.277588,178.447678 85.723938,177.604263 84.149719,176.759918 
	C84.149719,176.759918 84.190720,176.745590 83.824539,176.190033 
	C79.003090,171.402008 74.181648,166.613968 69.140656,161.139221 
	C64.118645,152.778076 60.753651,143.952911 61.000332,133.977798 
	C61.164959,127.320694 61.012676,120.655746 61.258224,113.427399 
	C61.259029,113.017868 61.259838,112.608337 61.717270,111.595329 
	C63.185200,106.710732 64.653130,101.826141 66.684883,96.578766 
	C67.868103,93.900848 68.945862,91.168869 70.278999,88.567787 
	C70.946404,87.265602 72.079605,86.202164 73.680733,85.003624 
	C75.490013,83.427742 77.299294,81.851860 79.725647,80.057434 
	C80.869560,79.076050 82.013466,78.094658 83.108589,77.097824 
	C83.108589,77.097824 83.142830,77.140953 83.829308,76.993233 
	C92.613419,70.947350 102.691513,69.180923 113.822823,68.377823 
	C132.663834,68.239159 149.006256,73.662697 160.689026,89.983528 
	C163.971664,87.928596 167.005447,86.029442 170.634232,84.038429 
	C171.096146,83.696526 171.558075,83.354630 172.001404,82.998528 
	C172.001404,82.998528 172.010803,83.018227 172.647842,82.916084 
	C173.499130,82.301971 174.350418,81.687859 175.762344,81.036247 
	C176.181976,80.715767 176.601608,80.395279 177.572540,79.996109 
	C177.828812,79.752007 178.085098,79.507904 178.221115,79.293350 
	C178.221115,79.293350 178.321259,79.366188 179.000824,79.163971 
	C186.676849,74.721092 194.352859,70.278221 202.401428,65.619705 
	C181.829208,36.549480 154.565964,21.727703 118.090683,22.907906 
	C114.283783,22.936666 110.461456,23.200357 106.672768,22.951702 
	C93.433891,22.082819 81.556931,26.439890 69.306320,32.230835 
	C65.790962,34.460316 62.275597,36.689793 58.103508,39.053391 
	C52.000011,44.675201 45.896515,50.297012 39.193722,56.203274 
	C34.529423,63.478443 29.865126,70.753616 24.983923,78.482033 
	C24.971275,78.649048 24.958626,78.816055 25.005247,78.985893 
	C25.005247,78.985893 24.969667,78.938408 24.425787,79.401443 
	C22.351553,86.579208 20.277319,93.756973 17.874638,101.664764 
	C17.610222,103.785332 17.345806,105.905899 16.823097,108.802925 
	C16.618614,112.211136 16.414131,115.619354 16.082510,119.512650 
	C16.123257,119.674759 16.164001,119.836876 16.047232,120.922234 
	C16.111147,126.259674 16.175062,131.597107 16.098177,137.515060 
	C16.228729,138.288391 16.359282,139.061722 16.357224,140.681870 
	C16.563171,141.789612 16.769119,142.897354 16.857197,144.796936 
z"/>
<path fill="#9BCB52" opacity="1.000000" stroke="none" 
	d="
M260.102570,222.321442 
	C258.640808,223.564987 257.179016,224.808533 255.186432,225.810623 
	C253.170822,226.467499 251.686005,227.365845 250.201202,228.264175 
	C250.201202,228.264175 250.125534,228.241318 249.668594,228.146729 
	C245.312576,228.451019 241.413483,228.849915 237.514404,229.248810 
	C229.700531,228.720886 224.920868,224.232910 221.746094,217.430298 
	C207.568939,187.052811 193.324524,156.706711 179.128372,126.338081 
	C176.952026,121.682434 174.901047,116.968201 172.783295,111.602409 
	C172.470856,110.628311 172.167236,110.332848 171.863602,110.037384 
	C171.557175,109.564621 171.250748,109.091858 171.221710,108.097260 
	C171.956467,104.071320 174.207718,102.637917 177.301086,101.141190 
	C180.582535,99.553452 183.138306,96.465874 186.011002,94.033310 
	C186.643997,93.634178 187.276978,93.235046 188.662659,92.881287 
	C193.710724,91.775948 198.006119,90.625237 203.327972,89.199539 
	C201.822357,92.147064 200.651703,94.438850 199.522812,96.648849 
	C204.374588,100.089478 208.033554,103.661102 211.082718,109.379257 
	C214.757858,116.271393 215.284698,124.804413 221.953964,130.494888 
	C225.873230,133.838943 226.570343,139.986832 229.970901,144.426895 
	C235.358154,151.460968 239.650650,159.345139 244.240738,166.969330 
	C245.298523,168.726334 245.497253,170.980118 246.417404,172.844345 
	C248.815536,177.702927 251.332993,182.505844 253.931274,187.260818 
	C254.992599,189.203094 255.994415,191.528214 257.696503,192.707809 
	C264.177734,197.199417 265.365082,204.164093 266.998230,210.994247 
	C266.998230,210.994247 267.000000,210.999390 266.639832,211.057861 
	C265.546722,213.110367 264.813751,215.104401 264.080750,217.098419 
	C264.080750,217.098419 264.035217,217.022232 263.806854,217.168243 
	C263.382568,217.868317 263.186646,218.422394 262.990723,218.976471 
	C262.990692,218.976471 263.003815,218.998978 262.769714,219.118530 
	C262.375366,219.526657 262.215118,219.815231 262.054840,220.103806 
	C262.054840,220.103806 262.026672,220.026001 261.817139,220.136581 
	C261.434784,220.548828 261.261963,220.850479 261.089142,221.152130 
	C261.089142,221.152130 261.064850,221.068420 260.835938,221.182999 
	C260.438873,221.638855 260.270721,221.980148 260.102570,222.321442 
z"/>
<path fill="#A5CE5B" opacity="1.000000" stroke="none" 
	d="
M350.733551,217.990982 
	C346.315521,226.507156 338.663696,229.826553 329.744415,229.736588 
	C320.634094,229.644699 313.376709,225.153168 309.128113,216.992310 
	C304.754578,208.591400 301.003632,199.866592 296.971832,191.287476 
	C293.731384,184.392258 290.478333,177.502975 286.949219,170.013412 
	C285.948578,171.607773 285.296600,172.646591 284.121582,173.678802 
	C285.248474,170.741730 286.898438,167.811264 289.048859,163.991943 
	C286.737579,163.991943 284.845703,163.980270 282.954041,163.994659 
	C280.007874,164.017044 279.870697,162.608765 280.485748,160.096436 
	C281.292389,156.801392 281.611237,153.373978 281.965363,149.985260 
	C282.243408,147.324966 280.949310,145.810471 278.174316,146.024017 
	C273.225891,146.404800 271.634857,143.849411 271.973724,139.324799 
	C272.122589,137.337036 272.275421,135.266724 271.871765,133.350739 
	C271.619568,132.153564 270.536652,130.539230 269.477203,130.198608 
	C261.536133,127.645508 261.520599,127.729370 260.934662,119.941032 
	C260.895782,119.424576 260.477203,118.936684 260.588776,119.167770 
	C258.657471,120.839798 256.832489,122.419769 255.007507,123.999741 
	C258.976532,115.402512 262.737152,106.698807 267.041962,98.273132 
	C268.327911,95.756226 271.136383,94.017220 273.611755,92.238113 
	C276.604187,97.943367 279.007568,103.457207 281.916687,108.689888 
	C285.614990,115.342163 289.801941,121.720726 293.632660,128.302032 
	C297.533234,135.003387 301.169159,141.858948 305.077820,148.555420 
	C311.983124,160.385941 319.072693,172.109070 325.955872,183.952255 
	C329.702118,190.397964 333.067871,197.065262 336.832825,203.499420 
	C338.618530,206.551086 341.606262,209.032211 342.845184,212.237289 
	C344.382996,216.215744 346.226807,218.616272 350.733551,217.990982 
z"/>
<path fill="#98CA50" opacity="1.000000" stroke="none" 
	d="
M397.101562,118.253372 
	C397.101562,118.253372 397.090607,118.671371 396.761902,119.020569 
	C396.331787,119.722893 396.230347,120.076012 396.128876,120.429138 
	C396.128876,120.429131 396.171509,120.749550 395.829559,121.055473 
	C395.370850,121.740974 395.254089,122.120552 395.137329,122.500137 
	C390.320221,133.529984 385.503082,144.559830 380.143066,155.959579 
	C379.428711,156.922989 379.257263,157.516479 379.085846,158.109970 
	C379.085846,158.109970 379.066193,158.008255 378.741943,158.064499 
	C375.639984,160.404800 372.807770,162.627182 370.115540,165.007858 
	C369.225189,165.795166 368.695709,166.990570 368.000610,167.999695 
	C368.000000,168.000000 367.998779,168.001221 367.567108,167.999969 
	C359.757996,168.819855 352.380188,171.132278 344.836914,167.749329 
	C344.117889,167.337555 343.565643,167.169586 343.007080,167.000198 
	C343.000763,166.998779 342.993530,166.988022 342.828552,166.743011 
	C342.109863,166.332092 341.556152,166.166153 340.703125,165.854568 
	C338.934235,163.807983 337.464691,161.907059 335.892029,159.785736 
	C335.594055,159.289444 335.334930,159.102707 335.006287,159.002289 
	C335.001068,158.999405 334.997559,158.987946 334.979584,158.692856 
	C334.645599,157.935349 334.329590,157.472916 334.007965,157.005524 
	C334.002350,157.000580 333.996307,156.983612 334.004395,156.610687 
	C335.486084,152.835373 335.580902,148.120758 334.442383,145.463242 
	C336.590057,144.100388 338.659882,142.786942 341.132111,141.218140 
	C342.489258,142.230331 344.285126,143.569702 346.589844,145.288605 
	C347.542603,143.338943 348.417206,141.811844 349.058380,140.192322 
	C352.133972,132.424072 354.558960,124.590477 361.542236,118.754562 
	C369.384186,112.201065 376.185150,104.401947 383.510956,97.072723 
	C384.858093,98.137039 385.955811,99.004303 387.247498,100.024803 
	C388.055328,99.031754 388.597382,98.221992 389.282532,97.560440 
	C390.102325,96.768906 391.044342,96.103951 391.800385,95.491882 
	C389.454376,90.554771 390.988800,85.833443 394.481293,86.407906 
	C397.697754,86.936966 400.808014,88.111633 403.965057,89.001907 
	C404.251251,89.491821 404.537445,89.981735 404.568756,91.029404 
	C403.002289,96.730690 402.596771,102.378365 400.101410,106.863243 
	C397.985443,110.666237 397.242462,114.230576 397.101562,118.253372 
z"/>
<path fill="#3B3E7D" opacity="1.000000" stroke="none" 
	d="
M69.999191,32.159077 
	C81.556931,26.439890 93.433891,22.082819 106.672768,22.951702 
	C110.461456,23.200357 114.283783,22.936666 118.551666,23.374338 
	C119.679619,24.894480 120.131912,26.216311 121.052437,26.953339 
	C124.250565,29.513990 127.643852,31.828842 130.904037,34.314419 
	C142.317032,43.015739 153.710663,51.742485 165.100449,60.474201 
	C169.315826,63.705807 173.547104,66.919846 177.676056,70.259430 
	C179.383163,71.640175 181.014999,73.135818 178.634689,75.588379 
	C177.954651,76.289055 178.394775,78.076874 178.321259,79.366188 
	C178.321259,79.366188 178.221115,79.293350 177.997421,79.288757 
	C177.522903,79.547707 177.272079,79.811249 177.021240,80.074799 
	C176.601608,80.395279 176.181976,80.715767 175.111572,81.038429 
	C173.644135,81.699814 172.827469,82.359024 172.010803,83.018234 
	C172.010803,83.018227 172.001404,82.998528 171.702911,83.028587 
	C170.949341,83.415855 170.494293,83.773064 170.039246,84.130280 
	C167.005447,86.029442 163.971664,87.928596 160.689026,89.983528 
	C149.006256,73.662697 132.663834,68.239159 113.439102,67.917236 
	C114.205383,65.926529 115.355385,64.396408 116.765091,62.520733 
	C115.538712,60.914703 114.525253,58.441612 112.699493,57.419533 
	C107.942589,54.756561 105.372986,50.625587 102.799126,46.109718 
	C101.892136,44.518383 98.876915,44.100307 96.794411,43.216934 
	C95.319565,42.591331 93.499626,42.424824 92.363197,41.441490 
	C90.781242,40.072632 89.694275,38.131714 88.535225,36.618176 
	C88.992722,34.813007 89.411514,33.160583 89.830299,31.508158 
	C89.452599,31.274216 89.074898,31.040274 88.697197,30.806332 
	C87.262375,31.764603 85.808594,33.560665 84.396172,33.528709 
	C79.589310,33.419960 74.797035,32.666435 69.999191,32.159077 
z"/>
<path fill="#A0CC58" opacity="1.000000" stroke="none" 
	d="
M267.265991,210.804306 
	C265.365082,204.164093 264.177734,197.199417 257.696503,192.707809 
	C255.994415,191.528214 254.992599,189.203094 253.931274,187.260818 
	C251.332993,182.505844 248.815536,177.702927 246.417404,172.844345 
	C245.497253,170.980118 245.298523,168.726334 244.240738,166.969330 
	C239.650650,159.345139 235.358154,151.460968 229.970901,144.426895 
	C226.570343,139.986832 225.873230,133.838943 221.953964,130.494888 
	C215.284698,124.804413 214.757858,116.271393 211.082718,109.379257 
	C208.033554,103.661102 204.374588,100.089478 199.522812,96.648849 
	C200.651703,94.438850 201.822357,92.147064 203.327972,89.199539 
	C198.006119,90.625237 193.710724,91.775948 188.955750,92.881126 
	C195.688690,88.471779 202.881195,84.107979 210.579712,79.437180 
	C220.268784,100.240417 229.594620,120.263748 238.694580,140.853699 
	C239.280243,142.613678 240.091782,143.807053 240.903320,145.000427 
	C241.679672,145.908142 242.456024,146.815872 243.717377,148.002930 
	C244.708221,148.232834 245.214066,148.183395 245.719910,148.133972 
	C245.404800,147.387894 245.089676,146.641800 244.774567,145.895706 
	C245.073242,145.093307 245.371887,144.290894 246.084457,143.110229 
	C246.755478,142.499344 246.895294,142.209991 246.917816,141.863922 
	C246.917816,141.863922 246.935638,141.955521 247.194061,141.770782 
	C247.584457,140.907761 247.716431,140.229446 247.848419,139.551147 
	C247.848419,139.551147 247.805862,139.242416 248.152420,138.950073 
	C248.655807,138.089447 248.812637,137.521179 248.969452,136.952911 
	C248.969467,136.952911 249.003159,136.994415 249.239304,136.822327 
	C249.636063,136.064209 249.796677,135.478165 249.957275,134.892136 
	C250.113388,134.358795 250.269501,133.825455 250.932556,133.138016 
	C251.625580,132.988464 251.811661,132.993011 252.248138,132.998520 
	C252.665512,132.999863 252.832443,133.000229 253.226471,133.304901 
	C253.809052,136.057037 254.342804,138.495209 254.476120,140.955093 
	C254.653793,144.233063 254.520020,147.527924 254.520020,151.399734 
	C256.678772,150.380569 257.973816,149.769165 259.208954,149.186035 
	C259.790955,149.588989 260.355438,149.778427 260.579590,150.165146 
	C264.033966,156.124863 268.846619,161.763031 270.438751,168.195007 
	C271.813477,173.748581 275.983246,172.913834 277.833588,174.217941 
	C279.087097,177.294495 279.907196,179.307266 280.727264,181.320038 
	C280.727264,181.320038 280.683807,181.741714 280.127625,181.899094 
	C273.676086,185.656036 274.687134,192.122681 273.147644,197.530533 
	C272.525665,199.176727 271.903717,200.822922 270.748199,202.775818 
	C269.770905,204.371613 269.327179,205.660690 268.883453,206.949768 
	C268.433533,208.171295 267.983643,209.392838 267.265991,210.804306 
z"/>
<path fill="#9ECC56" opacity="1.000000" stroke="none" 
	d="
M403.959747,88.643890 
	C400.808014,88.111633 397.697754,86.936966 394.481293,86.407906 
	C390.988800,85.833443 389.454376,90.554771 391.800385,95.491882 
	C391.044342,96.103951 390.102325,96.768906 389.282532,97.560440 
	C388.597382,98.221992 388.055328,99.031754 387.247498,100.024803 
	C385.955811,99.004303 384.858093,98.137039 383.510956,97.072723 
	C376.185150,104.401947 369.384186,112.201065 361.542236,118.754562 
	C354.558960,124.590477 352.133972,132.424072 349.058380,140.192322 
	C348.417206,141.811844 347.542603,143.338943 346.589844,145.288605 
	C344.285126,143.569702 342.489258,142.230331 341.132111,141.218140 
	C338.659882,142.786942 336.590057,144.100388 334.442383,145.463242 
	C335.580902,148.120758 335.486084,152.835373 333.736542,156.398590 
	C332.659058,153.449387 331.857483,150.339340 331.055908,147.229309 
	C340.293274,127.035736 350.259247,107.135277 358.538391,86.556206 
	C365.205505,69.984055 385.178772,68.195412 397.002289,78.772728 
	C399.865234,81.333931 401.665497,85.083031 403.959747,88.643890 
z"/>
<path fill="#9ACC59" opacity="1.000000" stroke="none" 
	d="
M350.942108,217.705536 
	C346.226807,218.616272 344.382996,216.215744 342.845184,212.237289 
	C341.606262,209.032211 338.618530,206.551086 336.832825,203.499420 
	C333.067871,197.065262 329.702118,190.397964 325.955872,183.952255 
	C319.072693,172.109070 311.983124,160.385941 305.077820,148.555420 
	C301.169159,141.858948 297.533234,135.003387 293.632660,128.302032 
	C289.801941,121.720726 285.614990,115.342163 281.916687,108.689888 
	C279.007568,103.457207 276.604187,97.943367 273.947601,92.150002 
	C275.980804,90.794113 278.042572,89.842636 280.846191,88.935333 
	C284.028503,91.417984 286.551849,93.781731 288.859589,96.339943 
	C289.562225,97.118858 289.504333,98.533623 290.077240,99.487541 
	C295.674164,108.807091 301.130005,118.220398 307.023590,127.350372 
	C313.808014,137.860474 317.518860,150.437714 327.890350,158.582870 
	C328.628723,159.162720 328.657715,160.659164 328.992645,161.736847 
	C329.864380,164.541809 330.271179,167.602112 331.667847,170.113144 
	C336.657410,179.083725 342.324402,187.690979 347.033386,196.798492 
	C349.382538,201.341858 355.281403,204.099380 354.129822,210.426727 
	C353.136749,212.757843 352.143707,215.088974 350.942108,217.705536 
z"/>
<path fill="#3957A0" opacity="1.000000" stroke="none" 
	d="
M16.489834,139.835052 
	C16.359282,139.061722 16.228729,138.288391 16.399420,136.947388 
	C16.810982,134.917435 16.921301,133.455124 17.382687,132.030548 
	C18.646555,132.464890 19.690845,132.692093 20.452553,133.283356 
	C33.069305,143.076752 45.725765,152.821686 58.205727,162.787369 
	C63.823864,167.273636 64.175453,167.439972 69.360199,161.825943 
	C74.181648,166.613968 79.003090,171.402008 83.632187,176.537308 
	C82.064850,176.776276 80.689850,176.667969 78.668030,176.508713 
	C82.365784,180.773392 85.531082,184.534790 88.854431,188.150955 
	C89.428123,188.775192 90.696754,188.722824 91.602417,189.087265 
	C94.009933,190.056152 97.176842,190.426071 98.658806,192.193665 
	C107.056984,202.210449 118.390854,208.557785 128.340149,216.610504 
	C132.718170,220.153992 137.532257,223.158752 142.148361,226.408112 
	C138.674805,227.260254 135.201248,228.112411 131.033264,228.637695 
	C127.559418,228.206406 124.780014,228.101990 121.966080,227.652161 
	C119.762604,225.098282 117.785027,222.651016 115.386650,220.728790 
	C109.594513,216.086533 103.575630,211.728546 97.702873,207.185242 
	C86.464706,198.491074 75.242691,189.775681 64.055634,181.015900 
	C55.209740,174.089310 46.518387,166.961639 37.571480,160.169495 
	C33.760639,157.276459 29.473322,155.011032 25.402534,152.460403 
	C25.111530,152.828796 24.820524,153.197205 24.529520,153.565613 
	C23.855482,151.214661 23.181442,148.863724 22.491728,146.458099 
	C20.919277,146.647675 19.463120,146.823227 18.005096,146.624161 
	C18.000906,145.500305 17.998583,144.751068 17.996986,143.602539 
	C17.495085,142.080521 16.992458,140.957794 16.489834,139.835052 
z"/>
<path fill="#3C3C75" opacity="1.000000" stroke="none" 
	d="
M178.661041,79.265076 
	C178.394775,78.076874 177.954651,76.289055 178.634689,75.588379 
	C181.014999,73.135818 179.383163,71.640175 177.676056,70.259430 
	C173.547104,66.919846 169.315826,63.705807 165.100449,60.474201 
	C153.710663,51.742485 142.317032,43.015739 130.904037,34.314419 
	C127.643852,31.828842 124.250565,29.513990 121.052437,26.953339 
	C120.131912,26.216311 119.679619,24.894480 119.008835,23.477165 
	C154.565964,21.727703 181.829208,36.549480 202.401428,65.619705 
	C194.352859,70.278221 186.676849,74.721092 178.661041,79.265076 
z"/>
<path fill="#90C95A" opacity="1.000000" stroke="none" 
	d="
M354.411591,210.186691 
	C355.281403,204.099380 349.382538,201.341858 347.033386,196.798492 
	C342.324402,187.690979 336.657410,179.083725 331.667847,170.113144 
	C330.271179,167.602112 329.864380,164.541809 328.992645,161.736847 
	C328.657715,160.659164 328.628723,159.162720 327.890350,158.582870 
	C317.518860,150.437714 313.808014,137.860474 307.023590,127.350372 
	C301.130005,118.220398 295.674164,108.807091 290.077240,99.487541 
	C289.504333,98.533623 289.562225,97.118858 288.859589,96.339943 
	C286.551849,93.781731 284.028503,91.417984 281.203003,88.959351 
	C290.261169,85.126762 303.613739,90.435974 309.008942,102.448608 
	C314.941559,115.657860 321.156311,128.740906 327.312988,141.848465 
	C328.148621,143.627594 329.360809,145.229889 330.727295,147.071686 
	C331.857483,150.339340 332.659058,153.449387 333.728455,156.771515 
	C333.996307,156.983612 334.002350,157.000580 334.023682,157.300873 
	C334.362549,158.063416 334.680054,158.525681 334.997559,158.987946 
	C334.997559,158.987946 335.001068,158.999405 335.110535,159.221313 
	C335.416870,159.715546 335.675232,159.903183 335.995148,160.006134 
	C337.464691,161.907059 338.934235,163.807983 340.869202,166.099213 
	C341.887573,166.655670 342.440552,166.821838 342.993530,166.988022 
	C342.993530,166.988022 343.000763,166.998779 343.171448,167.245865 
	C343.895966,167.659683 344.449860,167.826416 345.003723,167.993149 
	C352.380188,171.132278 359.757996,168.819855 367.340454,168.294708 
	C364.070404,169.396393 360.613434,170.748581 357.115448,170.864639 
	C353.055084,170.999344 350.913727,173.291550 352.207916,176.280548 
	C354.886108,182.466171 358.729401,188.147369 362.093567,194.036011 
	C359.626831,199.339569 357.160095,204.643112 354.411591,210.186691 
z"/>
<path fill="#3A509B" opacity="1.000000" stroke="none" 
	d="
M18.006964,146.998779 
	C19.463120,146.823227 20.919277,146.647675 22.491728,146.458099 
	C23.181442,148.863724 23.855482,151.214661 24.529520,153.565613 
	C24.820524,153.197205 25.111530,152.828796 25.402534,152.460403 
	C29.473322,155.011032 33.760639,157.276459 37.571480,160.169495 
	C46.518387,166.961639 55.209740,174.089310 64.055634,181.015900 
	C75.242691,189.775681 86.464706,198.491074 97.702873,207.185242 
	C103.575630,211.728546 109.594513,216.086533 115.386650,220.728790 
	C117.785027,222.651016 119.762604,225.098282 121.497871,227.653595 
	C117.075752,227.999802 113.080933,228.141510 109.100502,227.962784 
	C104.047371,227.735901 98.772865,228.062378 95.738762,222.459106 
	C95.080559,221.243591 92.922455,220.898407 91.564636,219.988937 
	C89.843948,218.836441 88.135460,217.626633 86.606712,216.237885 
	C85.151718,214.916153 84.123543,213.084000 82.578346,211.909561 
	C77.618126,208.139557 72.516426,204.554764 67.446953,200.929779 
	C64.964615,199.154739 62.243549,197.665253 59.960854,195.668839 
	C54.271019,190.692596 48.784733,185.484055 43.164738,180.426544 
	C42.747459,180.051041 41.813629,180.302002 41.292339,179.981415 
	C36.640850,177.120682 31.052782,175.028366 27.672316,171.062943 
	C24.137255,166.916199 22.738064,160.949493 20.400755,155.780365 
	C19.537045,153.870193 18.660589,151.965775 17.789948,150.058731 
	C17.575960,149.549347 17.361973,149.039948 17.370373,148.128128 
	C17.800072,147.522842 17.938139,147.280548 18.006964,146.998779 
z"/>
<path fill="#3C4692" opacity="1.000000" stroke="none" 
	d="
M25.200829,78.028786 
	C29.865126,70.753616 34.529423,63.478443 39.873787,56.119873 
	C42.162140,58.091225 43.770432,60.145977 45.958038,62.940865 
	C46.752949,60.316826 47.193672,58.861977 47.634396,57.407124 
	C48.170719,57.465961 48.707047,57.524799 49.243370,57.583637 
	C49.115562,59.498356 48.987759,61.413074 48.853470,63.424892 
	C54.416729,68.605637 60.328274,74.110725 66.298737,79.670670 
	C66.955109,78.834793 67.447311,77.918045 68.195808,77.324493 
	C69.251831,76.487068 70.497505,75.888809 71.662094,75.188301 
	C72.107719,76.483109 72.793304,77.750984 72.942360,79.079071 
	C73.162498,81.040489 73.001076,83.044731 73.002136,85.030739 
	C72.079605,86.202164 70.946404,87.265602 70.278999,88.567787 
	C68.945862,91.168869 67.868103,93.900848 66.039139,96.797775 
	C61.122570,99.011055 56.985680,101.395309 52.552807,102.917770 
	C43.546906,106.010841 31.552389,101.333694 27.694124,92.754028 
	C25.818766,88.583771 25.818682,83.570206 24.969667,78.938408 
	C24.969667,78.938408 25.005247,78.985893 25.145401,78.921059 
	C25.373566,78.775612 25.550430,78.658615 25.534801,78.620461 
	C25.449640,78.412521 25.317081,78.223991 25.200829,78.028786 
z"/>
<path fill="#3B4186" opacity="1.000000" stroke="none" 
	d="
M69.652756,32.194954 
	C74.797035,32.666435 79.589310,33.419960 84.396172,33.528709 
	C85.808594,33.560665 87.262375,31.764603 88.697197,30.806332 
	C89.074898,31.040274 89.452599,31.274216 89.830299,31.508158 
	C89.411514,33.160583 88.992722,34.813007 88.535225,36.618176 
	C89.694275,38.131714 90.781242,40.072632 92.363197,41.441490 
	C93.499626,42.424824 95.319565,42.591331 96.794411,43.216934 
	C98.876915,44.100307 101.892136,44.518383 102.799126,46.109718 
	C105.372986,50.625587 107.942589,54.756561 112.699493,57.419533 
	C114.525253,58.441612 115.538712,60.914703 116.765091,62.520733 
	C115.355385,64.396408 114.205383,65.926529 113.027191,67.814896 
	C102.691513,69.180923 92.613419,70.947350 83.478722,76.691422 
	C84.627647,69.702576 91.174530,70.512062 95.824837,68.078690 
	C93.323723,63.242134 89.853424,65.346382 87.551941,66.327301 
	C85.749947,63.644569 84.583649,59.822441 82.642632,59.377125 
	C73.922691,57.376572 70.555496,49.559948 64.515152,44.997940 
	C63.209080,45.295418 61.490452,45.686863 59.771820,46.078304 
	C60.558933,43.945442 61.346050,41.812580 62.240047,39.390110 
	C61.262112,39.257790 60.011173,39.088531 58.760235,38.919273 
	C62.275597,36.689793 65.790962,34.460316 69.652756,32.194954 
z"/>
<path fill="#3D4A95" opacity="1.000000" stroke="none" 
	d="
M17.776621,150.479324 
	C18.660589,151.965775 19.537045,153.870193 20.400755,155.780365 
	C22.738064,160.949493 24.137255,166.916199 27.672316,171.062943 
	C31.052782,175.028366 36.640850,177.120682 41.292339,179.981415 
	C41.813629,180.302002 42.747459,180.051041 43.164738,180.426544 
	C48.784733,185.484055 54.271019,190.692596 59.960854,195.668839 
	C62.243549,197.665253 64.964615,199.154739 67.446953,200.929779 
	C72.516426,204.554764 77.618126,208.139557 82.578346,211.909561 
	C84.123543,213.084000 85.151718,214.916153 86.606712,216.237885 
	C88.135460,217.626633 89.843948,218.836441 91.564636,219.988937 
	C92.922455,220.898407 95.080559,221.243591 95.738762,222.459106 
	C98.772865,228.062378 104.047371,227.735901 109.100502,227.962784 
	C113.080933,228.141510 117.075752,227.999802 121.532394,227.998993 
	C124.780014,228.101990 127.559418,228.206406 130.643402,228.562347 
	C85.166115,234.206177 50.373558,216.904495 27.101511,177.370346 
	C22.443106,169.456726 20.797873,159.769409 17.776621,150.479324 
z"/>
<path fill="#3C448C" opacity="1.000000" stroke="none" 
	d="
M58.431870,38.986332 
	C60.011173,39.088531 61.262112,39.257790 62.240047,39.390110 
	C61.346050,41.812580 60.558933,43.945442 59.771820,46.078304 
	C61.490452,45.686863 63.209080,45.295418 64.515152,44.997940 
	C70.555496,49.559948 73.922691,57.376572 82.642632,59.377125 
	C84.583649,59.822441 85.749947,63.644569 87.551941,66.327301 
	C89.853424,65.346382 93.323723,63.242134 95.824837,68.078690 
	C91.174530,70.512062 84.627647,69.702576 83.135483,76.765289 
	C83.142830,77.140953 83.108589,77.097824 82.743744,77.074890 
	C81.288795,78.126633 80.198685,79.201309 79.108574,80.275978 
	C77.299294,81.851860 75.490013,83.427742 73.341431,85.017181 
	C73.001076,83.044731 73.162498,81.040489 72.942360,79.079071 
	C72.793304,77.750984 72.107719,76.483109 71.662094,75.188301 
	C70.497505,75.888809 69.251831,76.487068 68.195808,77.324493 
	C67.447311,77.918045 66.955109,78.834793 66.298737,79.670670 
	C60.328274,74.110725 54.416729,68.605637 48.853470,63.424892 
	C48.987759,61.413074 49.115562,59.498356 49.243370,57.583637 
	C48.707047,57.524799 48.170719,57.465961 47.634396,57.407124 
	C47.193672,58.861977 46.752949,60.316826 45.958038,62.940865 
	C43.770432,60.145977 42.162140,58.091225 40.173431,55.977646 
	C45.896515,50.297012 52.000011,44.675201 58.431870,38.986332 
z"/>
<path fill="#375DA6" opacity="1.000000" stroke="none" 
	d="
M142.469971,226.391022 
	C137.532257,223.158752 132.718170,220.153992 128.340149,216.610504 
	C118.390854,208.557785 107.056984,202.210449 98.658806,192.193665 
	C97.176842,190.426071 94.009933,190.056152 91.602417,189.087265 
	C90.696754,188.722824 89.428123,188.775192 88.854431,188.150955 
	C85.531082,184.534790 82.365784,180.773392 78.668030,176.508713 
	C80.689850,176.667969 82.064850,176.776276 83.815277,176.815094 
	C84.190720,176.745590 84.149719,176.759918 84.149353,177.135742 
	C85.826904,178.292831 87.504829,179.074097 89.182747,179.855362 
	C89.182747,179.855362 89.071373,179.879791 89.104935,180.206970 
	C92.123619,181.679062 95.108734,182.823944 98.093857,183.968842 
	C98.093857,183.968826 98.562805,184.006531 98.932571,184.262756 
	C99.856018,184.415421 100.409698,184.311844 100.963379,184.208252 
	C108.354752,184.683014 115.746132,185.157761 123.453682,186.026382 
	C121.563614,187.549545 119.357368,188.678818 116.398712,190.193222 
	C125.289650,197.235336 133.407425,203.935394 141.822464,210.238602 
	C147.789978,214.708542 153.785492,219.471298 161.903870,219.364700 
	C156.820145,221.461060 151.736404,223.557419 146.114441,225.501038 
	C145.052231,225.566849 144.528259,225.785400 144.004303,226.003967 
	C143.600052,226.127274 143.195801,226.250610 142.469971,226.391022 
z"/>
<path fill="#A2CC59" opacity="1.000000" stroke="none" 
	d="
M280.851868,181.211029 
	C279.907196,179.307266 279.087097,177.294495 277.833588,174.217941 
	C275.983246,172.913834 271.813477,173.748581 270.438751,168.195007 
	C268.846619,161.763031 264.033966,156.124863 260.579590,150.165146 
	C260.355438,149.778427 259.790955,149.588989 259.208954,149.186035 
	C257.973816,149.769165 256.678772,150.380569 254.520020,151.399734 
	C254.520020,147.527924 254.653793,144.233063 254.476120,140.955093 
	C254.342804,138.495209 253.809052,136.057037 253.226624,132.873550 
	C252.958664,130.980423 252.917648,129.822937 252.876648,128.665451 
	C253.414551,127.243767 253.952438,125.822083 254.748932,124.200073 
	C256.832489,122.419769 258.657471,120.839798 260.588776,119.167770 
	C260.477203,118.936684 260.895782,119.424576 260.934662,119.941032 
	C261.520599,127.729370 261.536133,127.645508 269.477203,130.198608 
	C270.536652,130.539230 271.619568,132.153564 271.871765,133.350739 
	C272.275421,135.266724 272.122589,137.337036 271.973724,139.324799 
	C271.634857,143.849411 273.225891,146.404800 278.174316,146.024017 
	C280.949310,145.810471 282.243408,147.324966 281.965363,149.985260 
	C281.611237,153.373978 281.292389,156.801392 280.485748,160.096436 
	C279.870697,162.608765 280.007874,164.017044 282.954041,163.994659 
	C284.845703,163.980270 286.737579,163.991943 289.048859,163.991943 
	C286.898438,167.811264 285.248474,170.741730 283.874451,173.876968 
	C284.150360,174.081741 284.104675,174.570648 283.632385,174.863098 
	C282.821442,176.245224 282.482819,177.334885 282.144165,178.424545 
	C282.144165,178.424545 282.173035,178.748566 281.831604,179.050156 
	C281.366211,179.724319 281.242249,180.096909 281.118317,180.469482 
	C281.175018,180.703705 281.127747,180.914551 280.851868,181.211029 
z"/>
<path fill="#3766AD" opacity="1.000000" stroke="none" 
	d="
M162.211609,219.296539 
	C153.785492,219.471298 147.789978,214.708542 141.822464,210.238602 
	C133.407425,203.935394 125.289650,197.235336 116.398712,190.193222 
	C119.357368,188.678818 121.563614,187.549545 123.924156,186.072296 
	C132.795364,182.782608 141.512283,179.840866 150.481796,177.234467 
	C149.822311,178.712799 148.910233,179.855789 147.607819,181.005615 
	C144.997604,181.671051 142.685226,182.123413 140.591202,183.062653 
	C139.254105,183.662399 138.240067,184.982468 137.081177,185.979584 
	C138.123840,187.046494 139.077774,188.224350 140.234131,189.149048 
	C141.384415,190.068893 142.834717,190.613205 143.986557,191.531525 
	C150.561447,196.773453 157.359863,201.782394 163.518509,207.479965 
	C166.828308,210.541962 169.271210,213.854767 174.031158,210.258408 
	C174.110001,210.198837 174.726349,210.850677 175.091873,211.170547 
	C170.901031,213.856491 166.710190,216.542419 162.211609,219.296539 
z"/>
<path fill="#385EA5" opacity="1.000000" stroke="none" 
	d="
M69.250427,161.482574 
	C64.175453,167.439972 63.823864,167.273636 58.205727,162.787369 
	C45.725765,152.821686 33.069305,143.076752 20.452553,133.283356 
	C19.690845,132.692093 18.646555,132.464890 17.372694,131.570801 
	C16.998714,127.382805 16.985792,123.692276 16.902534,119.799744 
	C16.687088,119.339554 16.479572,119.149498 16.209648,119.027565 
	C16.414131,115.619354 16.618614,112.211136 17.229687,108.710945 
	C17.757839,109.929092 18.193150,111.302429 17.944248,112.537918 
	C17.072430,116.865479 19.150005,119.187508 22.798115,120.943558 
	C26.072544,122.519714 29.450422,124.135582 32.245255,126.397850 
	C37.296474,130.486542 41.825897,135.216171 46.829525,139.369354 
	C48.620308,140.855789 51.152645,141.448807 53.786320,142.650223 
	C53.931339,143.455048 54.210461,145.004105 54.532238,146.789902 
	C56.034748,146.199936 57.178677,145.750763 58.209812,145.345871 
	C58.991882,147.934448 59.677807,150.204788 60.363728,152.475128 
	C60.688923,152.334335 61.014118,152.193542 61.339314,152.052750 
	C60.890438,145.700790 60.441563,139.348816 59.994576,132.529007 
	C60.331715,126.038872 60.666973,120.016594 61.002228,113.994308 
	C61.012676,120.655746 61.164959,127.320694 61.000332,133.977798 
	C60.753651,143.952911 64.118645,152.778076 69.250427,161.482574 
z"/>
<path fill="#3377BB" opacity="1.000000" stroke="none" 
	d="
M147.998169,180.998779 
	C148.910233,179.855789 149.822311,178.712799 150.863205,177.282593 
	C151.741669,176.347473 152.491302,175.699570 153.893158,174.973694 
	C155.339706,173.871002 156.134048,172.846298 156.928375,171.821594 
	C156.988403,171.486176 157.172104,171.244949 157.943817,170.954147 
	C158.608963,170.548401 158.809799,170.286438 159.010651,170.024475 
	C159.222305,169.753296 159.433975,169.482117 160.197250,169.087631 
	C161.085251,168.528046 161.421677,168.091782 161.758102,167.655502 
	C161.758102,167.655502 161.773361,167.824722 162.109528,167.828751 
	C166.701019,166.709274 170.956329,165.585770 173.606216,164.886139 
	C177.503250,169.828278 180.305603,173.382156 183.107956,176.936050 
	C183.107956,176.936050 183.021896,176.989319 183.022003,177.309784 
	C183.487350,178.332870 183.952591,179.035492 184.417847,179.738113 
	C184.417847,179.738113 184.384613,179.980515 184.263367,180.220169 
	C185.086639,181.976135 186.031189,183.492432 186.975723,185.008743 
	C186.975723,185.008743 187.004883,185.008667 186.999146,185.416168 
	C187.930542,190.692856 190.791534,195.562836 186.988647,200.435867 
	C186.908371,200.538742 186.970001,200.752350 186.965454,200.914307 
	C186.779816,201.200958 186.594193,201.487610 185.801193,201.876877 
	C184.465469,201.989578 183.737106,201.999680 182.849304,201.702530 
	C179.941162,199.474365 176.849030,197.897446 174.512039,195.564178 
	C168.863861,189.924942 158.654877,189.341599 156.740204,179.580338 
	C156.711639,179.434677 156.154633,179.392670 155.635437,179.241501 
	C153.885162,180.733582 152.047897,182.299835 149.958023,184.081421 
	C149.181381,182.859833 148.589767,181.929306 147.998169,180.998779 
z"/>
<path fill="#3663AB" opacity="1.000000" stroke="none" 
	d="
M59.992683,132.996857 
	C60.441563,139.348816 60.890438,145.700790 61.339314,152.052750 
	C61.014118,152.193542 60.688923,152.334335 60.363728,152.475128 
	C59.677807,150.204788 58.991882,147.934448 58.209812,145.345871 
	C57.178677,145.750763 56.034748,146.199936 54.532238,146.789902 
	C54.210461,145.004105 53.931339,143.455048 53.786320,142.650223 
	C51.152645,141.448807 48.620308,140.855789 46.829525,139.369354 
	C41.825897,135.216171 37.296474,130.486542 32.245255,126.397850 
	C29.450422,124.135582 26.072544,122.519714 22.798115,120.943558 
	C19.150005,119.187508 17.072430,116.865479 17.944248,112.537918 
	C18.193150,111.302429 17.757839,109.929092 17.358833,108.322716 
	C17.345806,105.905899 17.610222,103.785332 18.359005,101.374802 
	C25.001514,108.341866 32.176228,113.919067 41.957439,115.475410 
	C40.476906,119.350136 40.421860,121.894394 45.348778,122.193909 
	C46.588066,122.269249 47.659134,124.174400 48.914993,125.091446 
	C52.578423,127.766479 56.296207,130.367081 59.992683,132.996857 
z"/>
<path fill="#346FB4" opacity="1.000000" stroke="none" 
	d="
M147.607819,181.005615 
	C148.589767,181.929306 149.181381,182.859833 149.958023,184.081421 
	C152.047897,182.299835 153.885162,180.733582 155.635437,179.241501 
	C156.154633,179.392670 156.711639,179.434677 156.740204,179.580338 
	C158.654877,189.341599 168.863861,189.924942 174.512039,195.564178 
	C176.849030,197.897446 179.941162,199.474365 182.699677,202.003754 
	C181.856155,204.135773 181.002823,205.659348 180.149475,207.182922 
	C180.149475,207.182907 180.076340,207.100708 179.863846,207.186188 
	C179.456390,207.575623 179.261429,207.879562 179.066467,208.183517 
	C178.995529,208.515015 178.808105,208.755905 178.046402,209.038483 
	C177.296783,209.339523 177.094315,209.582657 176.981186,209.900192 
	C176.543762,210.280350 176.106339,210.660507 175.380402,211.105621 
	C174.726349,210.850677 174.110001,210.198837 174.031158,210.258408 
	C169.271210,213.854767 166.828308,210.541962 163.518509,207.479965 
	C157.359863,201.782394 150.561447,196.773453 143.986557,191.531525 
	C142.834717,190.613205 141.384415,190.068893 140.234131,189.149048 
	C139.077774,188.224350 138.123840,187.046494 137.081177,185.979584 
	C138.240067,184.982468 139.254105,183.662399 140.591202,183.062653 
	C142.685226,182.123413 144.997604,181.671051 147.607819,181.005615 
z"/>
<path fill="#38396D" opacity="1.000000" stroke="none" 
	d="
M42.009041,115.103920 
	C32.176228,113.919067 25.001514,108.341866 18.523230,101.009789 
	C20.277319,93.756973 22.351553,86.579208 24.697727,79.169922 
	C25.818682,83.570206 25.818766,88.583771 27.694124,92.754028 
	C31.552389,101.333694 43.546906,106.010841 52.552807,102.917770 
	C56.985680,101.395309 61.122570,99.011055 65.757233,96.979164 
	C64.653130,101.826141 63.185200,106.710732 61.108505,111.868683 
	C58.334625,112.778015 56.169506,113.413979 53.668068,114.034775 
	C52.551041,114.338219 51.770336,114.656830 50.654716,114.975754 
	C49.874550,115.008820 49.429298,115.041565 48.657494,115.049522 
	C47.895912,115.052574 47.460896,115.080399 46.608315,115.081612 
	C44.796848,115.071312 43.402943,115.087616 42.009041,115.103920 
z"/>
<path fill="#99CA52" opacity="1.000000" stroke="none" 
	d="
M420.012238,68.039886 
	C419.533447,68.335640 419.054688,68.631386 418.180237,68.765427 
	C417.541199,68.771286 417.297791,68.938835 417.054382,69.106384 
	C417.054382,69.106377 416.994263,69.032410 416.573792,69.016998 
	C411.771729,68.665970 407.390137,68.330353 403.004395,67.607986 
	C401.306030,62.640060 404.535400,59.480915 406.467041,55.887413 
	C406.661346,55.883991 407.037415,55.982346 407.119019,56.155628 
	C407.440796,56.174042 407.680969,56.019173 407.937836,55.915760 
	C407.954498,55.967220 407.868347,55.901764 408.254944,55.870193 
	C410.540466,53.623249 409.762390,49.338917 413.986816,48.957054 
	C413.985992,48.992626 413.930817,48.947639 414.274658,48.973328 
	C415.077545,48.996124 415.536560,48.993225 416.223755,49.127670 
	C416.866150,49.831085 417.280396,50.397156 417.668304,51.176060 
	C417.537140,51.672939 417.347443,51.878868 416.846924,52.109634 
	C416.607300,52.769367 416.593750,53.326141 416.668121,54.197262 
	C417.812897,54.337696 418.869781,54.163788 420.373413,53.999332 
	C422.901184,53.986912 424.982178,53.965034 427.047791,53.961014 
	C427.032379,53.978867 427.052460,53.950607 427.058533,54.275555 
	C427.476685,55.033566 427.888763,55.466629 428.580811,55.893501 
	C429.233673,55.891865 429.606659,55.896412 429.976318,56.278297 
	C429.319214,58.448624 428.665466,60.241619 428.011719,62.034611 
	C426.668152,63.356838 425.324585,64.679070 423.384583,66.101166 
	C422.526642,66.463203 422.265167,66.725372 422.003693,66.987534 
	C422.003693,66.987534 422.000427,67.003700 421.691528,67.011429 
	C420.925842,67.359398 420.469055,67.699646 420.012238,68.039886 
z"/>
<path fill="#82C45A" opacity="1.000000" stroke="none" 
	d="
M362.361542,193.780457 
	C358.729401,188.147369 354.886108,182.466171 352.207916,176.280548 
	C350.913727,173.291550 353.055084,170.999344 357.115448,170.864639 
	C360.613434,170.748581 364.070404,169.396393 367.772156,168.295975 
	C367.998779,168.001221 368.000000,168.000000 368.354248,167.965424 
	C371.190613,166.631683 373.672699,165.332520 376.154785,164.033356 
	C373.105011,170.634720 370.046631,177.232147 367.009186,183.839188 
	C365.529144,187.058502 364.088165,190.295761 362.361542,193.780457 
z"/>
<path fill="#366AB1" opacity="1.000000" stroke="none" 
	d="
M48.984051,115.074310 
	C49.429298,115.041565 49.874550,115.008820 50.850224,115.234406 
	C52.255230,115.011810 53.129810,114.530876 54.004387,114.049942 
	C56.169506,113.413979 58.334625,112.778015 60.880196,112.170425 
	C61.259838,112.608337 61.259029,113.017868 61.130226,113.710854 
	C60.666973,120.016594 60.331715,126.038872 59.994572,132.529007 
	C56.296207,130.367081 52.578423,127.766479 48.914993,125.091446 
	C47.659134,124.174400 46.588066,122.269249 45.348778,122.193909 
	C40.421860,121.894394 40.476906,119.350136 41.957439,115.475410 
	C43.402943,115.087616 44.796848,115.071312 46.757984,115.285843 
	C47.878162,115.369225 48.431107,115.221771 48.984051,115.074310 
z"/>
<path fill="#96C94F" opacity="1.000000" stroke="none" 
	d="
M433.018066,40.984882 
	C433.110107,41.333797 433.202179,41.682716 433.173431,42.743130 
	C431.977142,46.020638 430.901642,48.586651 429.842926,51.126118 
	C429.859680,51.099571 429.920959,51.085953 429.946991,50.643547 
	C429.978455,46.817307 431.004578,42.936787 425.992706,41.999725 
	C426.003296,41.999928 425.993927,42.019230 425.998840,41.612598 
	C425.688049,37.120213 423.932770,37.094006 421.050232,39.276226 
	C419.920197,40.131718 418.369263,40.431267 416.834106,40.743286 
	C416.284363,40.385704 415.910614,40.268845 415.398071,40.148205 
	C415.259308,40.144424 415.023010,39.998703 415.001373,39.700066 
	C414.654785,38.933426 414.329834,38.465420 414.003357,37.597801 
	C414.772491,34.668015 415.543243,32.137836 416.093536,30.331289 
	C414.944061,28.341793 413.972351,26.659960 413.389587,24.987494 
	C416.799988,25.673903 419.821442,26.350945 422.842865,27.027987 
	C422.842865,27.027987 423.040253,27.363844 423.204987,27.873541 
	C424.017883,28.565649 424.666046,28.748060 425.314209,28.930473 
	C425.565369,28.975679 425.774384,29.094833 425.992615,29.846497 
	C427.374207,31.591888 428.704498,32.778721 430.034760,33.965553 
	C430.034760,33.965553 430.000000,33.997013 430.021729,34.289871 
	C430.383698,35.047863 430.723907,35.513004 431.064117,35.978149 
	C431.064117,35.978153 430.999634,35.990147 431.018860,36.275284 
	C431.373169,37.035778 431.708252,37.511131 432.043365,37.986488 
	C432.332062,38.472374 432.620758,38.958256 432.740265,39.836922 
	C432.720062,40.481426 432.869049,40.733154 433.018066,40.984882 
z"/>
<path fill="#A7CB65" opacity="1.000000" stroke="none" 
	d="
M422.731445,26.699915 
	C419.821442,26.350945 416.799988,25.673903 413.117554,24.706871 
	C405.405701,21.457588 402.543640,28.413816 397.784515,30.814173 
	C397.179230,31.119457 397.421631,33.525738 397.636200,34.901775 
	C397.804688,35.982285 398.536652,36.974941 398.888031,38.235352 
	C398.470978,38.663773 398.184204,38.863472 397.530640,39.095497 
	C390.265472,40.949780 387.430115,45.286545 389.554962,50.814213 
	C390.082336,52.186134 390.718445,53.516262 391.009766,55.058548 
	C390.784790,56.900139 390.854675,58.548786 390.924561,60.197433 
	C384.172821,51.797222 384.613373,39.338421 391.957977,30.974869 
	C399.707123,22.150562 412.682098,20.202761 422.731445,26.699915 
z"/>
<path fill="#A4CC60" opacity="1.000000" stroke="none" 
	d="
M390.979095,60.419456 
	C390.854675,58.548786 390.784790,56.900139 391.309021,55.104286 
	C392.611267,55.342430 393.319427,55.727779 394.170105,56.324791 
	C394.621277,56.668266 394.929901,56.800076 395.439850,56.943024 
	C395.641144,56.954170 396.020447,57.090771 396.104614,57.240395 
	C396.448853,57.302540 396.708984,57.215057 397.306763,57.051376 
	C399.377228,55.946812 401.110077,54.918442 403.163727,53.936501 
	C404.268616,54.316586 405.052704,54.650249 405.957642,55.204933 
	C406.143219,55.580914 406.207977,55.735874 406.272705,55.890831 
	C404.535400,59.480915 401.306030,62.640060 402.603180,67.617859 
	C401.670776,68.056999 401.135437,68.099525 400.600098,68.142059 
	C400.600098,68.142059 400.265656,68.157211 400.003784,67.842300 
	C399.445831,67.381844 399.149811,67.236298 398.853760,67.090759 
	C398.853760,67.090759 398.950623,67.081436 398.806702,66.841537 
	C398.081085,66.420372 397.499390,66.239105 396.917664,66.057838 
	C396.917664,66.057838 396.980469,66.010765 396.836029,65.788101 
	C396.336212,65.413666 395.980804,65.261902 395.625427,65.110138 
	C394.838928,64.533485 394.052399,63.956833 393.106201,62.822128 
	C392.403839,61.842438 391.861176,61.420799 391.318542,60.999161 
	C391.318542,60.999157 391.033630,60.641483 390.979095,60.419456 
z"/>
<path fill="#437BB3" opacity="1.000000" stroke="none" 
	d="
M183.079208,176.566864 
	C180.305603,173.382156 177.503250,169.828278 173.606216,164.886139 
	C170.956329,165.585770 166.701019,166.709274 162.063431,167.757385 
	C165.343018,163.730713 169.004852,159.779419 173.281708,155.164505 
	C176.752777,162.638092 179.901627,169.417877 183.079208,176.566864 
z"/>
<path fill="#9ECC56" opacity="1.000000" stroke="none" 
	d="
M397.369202,118.014580 
	C397.242462,114.230576 397.985443,110.666237 400.101410,106.863243 
	C402.596771,102.378365 403.002289,96.730690 404.542358,91.327179 
	C404.544159,95.196159 405.023438,99.527138 403.914215,103.403572 
	C402.488831,108.385193 399.788116,113.001892 397.369202,118.014580 
z"/>
<path fill="#A0CC58" opacity="1.000000" stroke="none" 
	d="
M185.660034,94.064964 
	C183.138306,96.465874 180.582535,99.553452 177.301086,101.141190 
	C174.207718,102.637917 171.956467,104.071320 171.215744,107.802979 
	C168.143356,105.084763 168.751328,103.117188 172.386002,101.335342 
	C176.812698,99.165207 181.011627,96.530426 185.660034,94.064964 
z"/>
<path fill="#97BE66" opacity="1.000000" stroke="none" 
	d="
M429.826172,51.152664 
	C430.901642,48.586651 431.977142,46.020638 433.105042,43.008511 
	C435.349945,49.826466 433.117157,56.042377 428.315552,61.878220 
	C428.665466,60.241619 429.319214,58.448624 430.046265,55.884644 
	C430.021759,53.793324 429.923981,52.472996 429.826172,51.152664 
z"/>
<path fill="#A2CC59" opacity="1.000000" stroke="none" 
	d="
M273.433533,197.291351 
	C274.687134,192.122681 273.676086,185.656036 279.970764,182.041626 
	C278.153198,187.035263 275.936310,192.043732 273.433533,197.291351 
z"/>
<path fill="#437BB3" opacity="1.000000" stroke="none" 
	d="
M187.274139,200.784302 
	C186.970001,200.752350 186.908371,200.538742 186.988647,200.435867 
	C190.791534,195.562836 187.930542,190.692856 186.988037,185.426529 
	C187.761719,186.474075 188.373062,188.045319 189.350266,189.340485 
	C192.700287,193.780624 191.883438,197.463211 187.274139,200.784302 
z"/>
<path fill="#90C95A" opacity="1.000000" stroke="none" 
	d="
M376.454590,163.879532 
	C373.672699,165.332520 371.190613,166.631683 368.354858,167.965118 
	C368.695709,166.990570 369.225189,165.795166 370.115540,165.007858 
	C372.807770,162.627182 375.639984,160.404800 378.777466,158.102158 
	C378.342987,159.964279 377.548676,161.844986 376.454590,163.879532 
z"/>
<path fill="#A7CB65" opacity="1.000000" stroke="none" 
	d="
M400.881287,68.412354 
	C401.135437,68.099525 401.670776,68.056999 402.607330,68.004608 
	C407.390137,68.330353 411.771729,68.665970 416.616943,69.037193 
	C411.702423,71.886650 406.418732,70.845421 400.881287,68.412354 
z"/>
<path fill="#A2CC59" opacity="1.000000" stroke="none" 
	d="
M237.876923,229.491089 
	C241.413483,228.849915 245.312576,228.451019 249.678909,228.108551 
	C246.177261,228.687790 242.208359,229.210571 237.876923,229.491089 
z"/>
<path fill="#3957A0" opacity="1.000000" stroke="none" 
	d="
M97.927902,183.654694 
	C95.108734,182.823944 92.123619,181.679062 89.137520,180.160187 
	C92.011673,180.971008 94.886818,182.155792 97.927902,183.654694 
z"/>
<path fill="#3A509B" opacity="1.000000" stroke="none" 
	d="
M16.972870,120.001747 
	C16.985792,123.692276 16.998714,127.382805 17.021629,131.533081 
	C16.921301,133.455124 16.810982,134.917435 16.469820,136.657135 
	C16.175062,131.597107 16.111147,126.259674 16.318016,120.461861 
	C16.588802,120.001488 16.972870,120.001747 16.972870,120.001747 
z"/>
<path fill="#437BB3" opacity="1.000000" stroke="none" 
	d="
M180.464264,207.084351 
	C181.002823,205.659348 181.856155,204.135773 182.859116,202.311005 
	C183.737106,201.999680 184.465469,201.989578 185.558197,201.973907 
	C184.208038,203.640823 182.493530,205.313293 180.464264,207.084351 
z"/>
<path fill="#A2CC59" opacity="1.000000" stroke="none" 
	d="
M250.543213,228.260406 
	C251.686005,227.365845 253.170822,226.467499 254.860703,225.857269 
	C253.672256,226.849136 252.278748,227.552887 250.543213,228.260406 
z"/>
<path fill="#97BE66" opacity="1.000000" stroke="none" 
	d="
M429.976837,33.633614 
	C428.704498,32.778721 427.374207,31.591888 426.082825,30.005795 
	C427.387421,30.838243 428.653168,32.069954 429.976837,33.633614 
z"/>
<path fill="#A2CC59" opacity="1.000000" stroke="none" 
	d="
M264.366638,216.910568 
	C264.813751,215.104401 265.546722,213.110367 266.639832,211.059052 
	C266.217529,212.908752 265.435028,214.815735 264.366638,216.910568 
z"/>
<path fill="#3957A0" opacity="1.000000" stroke="none" 
	d="
M89.006989,179.573242 
	C87.504829,179.074097 85.826904,178.292831 84.159637,177.136200 
	C85.723938,177.604263 87.277588,178.447678 89.006989,179.573242 
z"/>
<path fill="#A5CE5B" opacity="1.000000" stroke="none" 
	d="
M240.897614,144.672256 
	C240.091782,143.807053 239.280243,142.613678 238.724396,141.214600 
	C239.617371,142.120621 240.254623,143.232346 240.897614,144.672256 
z"/>
<path fill="#A2CC59" opacity="1.000000" stroke="none" 
	d="
M269.143738,206.755646 
	C269.327179,205.660690 269.770905,204.371613 270.543701,203.042023 
	C270.383209,204.188187 269.893616,205.374863 269.143738,206.755646 
z"/>
<path fill="#3B4186" opacity="1.000000" stroke="none" 
	d="
M79.417114,80.166702 
	C80.198685,79.201309 81.288795,78.126633 82.768143,77.082611 
	C82.013466,78.094658 80.869560,79.076050 79.417114,80.166702 
z"/>
<path fill="#437BB3" opacity="1.000000" stroke="none" 
	d="
M186.957855,184.669907 
	C186.031189,183.492432 185.086639,181.976135 184.263245,180.098053 
	C185.236252,181.267899 186.088120,182.799484 186.957855,184.669907 
z"/>
<path fill="#437BB3" opacity="1.000000" stroke="none" 
	d="
M156.614716,171.923584 
	C156.134048,172.846298 155.339706,173.871002 154.182648,174.896805 
	C154.646957,173.940445 155.473999,172.983002 156.614716,171.923584 
z"/>
<path fill="#A5CE5B" opacity="1.000000" stroke="none" 
	d="
M252.615768,128.869675 
	C252.917648,129.822937 252.958664,130.980423 252.999542,132.569260 
	C252.832443,133.000229 252.665512,132.999863 252.161163,132.796417 
	C251.662491,132.335785 251.441315,132.149353 251.160217,132.034012 
	C251.558441,131.047302 251.956680,130.060593 252.615768,128.869675 
z"/>
<path fill="#A5CE5B" opacity="1.000000" stroke="none" 
	d="
M244.544159,146.047241 
	C245.089676,146.641800 245.404800,147.387894 245.719910,148.133972 
	C245.214066,148.183395 244.708221,148.232834 244.022156,148.013214 
	C243.999237,147.229034 244.156509,146.713913 244.544159,146.047241 
z"/>
<path fill="#A5CE5B" opacity="1.000000" stroke="none" 
	d="
M282.400208,178.207245 
	C282.482819,177.334885 282.821442,176.245224 283.516479,175.079559 
	C283.467377,175.999023 283.061798,176.994492 282.400208,178.207245 
z"/>
<path fill="#3C3C75" opacity="1.000000" stroke="none" 
	d="
M172.329315,82.967163 
	C172.827469,82.359024 173.644135,81.699814 174.831253,81.057182 
	C174.350418,81.687859 173.499130,82.301971 172.329315,82.967163 
z"/>
<path fill="#3A509B" opacity="1.000000" stroke="none" 
	d="
M16.423529,140.258453 
	C16.992458,140.957794 17.495085,142.080521 17.741709,143.602631 
	C17.315493,144.003021 17.145281,144.004059 16.975067,144.005096 
	C16.769119,142.897354 16.563171,141.789612 16.423529,140.258453 
z"/>
<path fill="#3D4A95" opacity="1.000000" stroke="none" 
	d="
M16.916132,144.401016 
	C17.145281,144.004059 17.315493,144.003021 17.740984,144.001907 
	C17.998583,144.751068 18.000906,145.500305 18.005096,146.624161 
	C17.938139,147.280548 17.800072,147.522842 17.418383,147.844940 
	C17.115068,146.908447 16.986132,145.852692 16.916132,144.401016 
z"/>
<path fill="#437BB3" opacity="1.000000" stroke="none" 
	d="
M184.380600,179.414490 
	C183.952591,179.035492 183.487350,178.332870 183.047897,177.266296 
	C183.496918,177.631851 183.920135,178.361359 184.380600,179.414490 
z"/>
<path fill="#A7CB65" opacity="1.000000" stroke="none" 
	d="
M391.362732,61.263153 
	C391.861176,61.420799 392.403839,61.842438 393.000671,62.540367 
	C392.505554,62.386822 391.956238,61.956982 391.362732,61.263153 
z"/>
<path fill="#3957A0" opacity="1.000000" stroke="none" 
	d="
M100.648300,184.089661 
	C100.409698,184.311844 99.856018,184.415421 99.162201,184.313782 
	C99.459114,184.062744 99.896172,184.016907 100.648300,184.089661 
z"/>
<path fill="#97BE66" opacity="1.000000" stroke="none" 
	d="
M432.037933,37.684673 
	C431.708252,37.511131 431.373169,37.035778 431.040710,36.250839 
	C431.373108,36.421787 431.702789,36.902325 432.037933,37.684673 
z"/>
<path fill="#437BB3" opacity="1.000000" stroke="none" 
	d="
M161.486298,167.726776 
	C161.421677,168.091782 161.085251,168.528046 160.448685,169.009583 
	C160.503860,168.635910 160.859192,168.216980 161.486298,167.726776 
z"/>
<path fill="#97BE66" opacity="1.000000" stroke="none" 
	d="
M431.056000,35.676853 
	C430.723907,35.513004 430.383698,35.047863 430.039368,34.276752 
	C430.372772,34.439041 430.710327,34.907303 431.056000,35.676853 
z"/>
<path fill="#A2CC59" opacity="1.000000" stroke="none" 
	d="
M263.249512,218.826920 
	C263.186646,218.422394 263.382568,217.868317 263.850220,217.177734 
	C263.917389,217.586609 263.712830,218.131989 263.249512,218.826920 
z"/>
<path fill="#3957A0" opacity="1.000000" stroke="none" 
	d="
M144.333679,226.033936 
	C144.528259,225.785400 145.052231,225.566849 145.750473,225.525482 
	C145.504181,225.823074 145.083618,225.943497 144.333679,226.033936 
z"/>
<path fill="#97BE66" opacity="1.000000" stroke="none" 
	d="
M425.158630,28.625994 
	C424.666046,28.748060 424.017883,28.565649 423.229858,28.066730 
	C423.727661,27.940655 424.365356,28.131086 425.158630,28.625994 
z"/>
<path fill="#A5CE5B" opacity="1.000000" stroke="none" 
	d="
M248.727631,137.130234 
	C248.812637,137.521179 248.655807,138.089447 248.249969,138.828552 
	C248.162567,138.435440 248.324188,137.871506 248.727631,137.130234 
z"/>
<path fill="#A7CB65" opacity="1.000000" stroke="none" 
	d="
M397.080841,66.315704 
	C397.499390,66.239105 398.081085,66.420372 398.797180,66.889259 
	C398.369049,66.975777 397.806519,66.774673 397.080841,66.315704 
z"/>
<path fill="#A7CB65" opacity="1.000000" stroke="none" 
	d="
M420.311371,68.034973 
	C420.469055,67.699646 420.925842,67.359398 421.683472,67.008987 
	C421.526337,67.342575 421.068420,67.686317 420.311371,68.034973 
z"/>
<path fill="#A5CE5B" opacity="1.000000" stroke="none" 
	d="
M249.709778,135.074585 
	C249.796677,135.478165 249.636063,136.064209 249.212830,136.818787 
	C249.120911,136.410553 249.291595,135.833786 249.709778,135.074585 
z"/>
<path fill="#A5CE5B" opacity="1.000000" stroke="none" 
	d="
M247.599426,139.784042 
	C247.716431,140.229446 247.584457,140.907761 247.147491,141.767670 
	C247.011841,141.305161 247.181137,140.661057 247.599426,139.784042 
z"/>
<path fill="#90C95A" opacity="1.000000" stroke="none" 
	d="
M379.349792,157.946930 
	C379.257263,157.516479 379.428711,156.922989 379.886108,156.184631 
	C379.985931,156.621124 379.799835,157.202499 379.349792,157.946930 
z"/>
<path fill="#3C3C75" opacity="1.000000" stroke="none" 
	d="
M170.336731,84.084351 
	C170.494293,83.773064 170.949341,83.415855 171.712204,83.035690 
	C171.558075,83.354630 171.096146,83.696526 170.336731,84.084351 
z"/>
<path fill="#A2CC59" opacity="1.000000" stroke="none" 
	d="
M260.360870,222.192291 
	C260.270721,221.980148 260.438873,221.638855 260.879333,221.186859 
	C260.974182,221.405151 260.796661,221.734161 260.360870,222.192291 
z"/>
<path fill="#38396D" opacity="1.000000" stroke="none" 
	d="
M25.092377,78.255409 
	C25.317081,78.223991 25.449640,78.412521 25.534801,78.620461 
	C25.550430,78.658615 25.373566,78.775612 25.115767,78.919647 
	C24.958626,78.816055 24.971275,78.649048 25.092377,78.255409 
z"/>
<path fill="#A2CC59" opacity="1.000000" stroke="none" 
	d="
M261.347290,221.067413 
	C261.261963,220.850479 261.434784,220.548828 261.856750,220.148499 
	C261.939087,220.360779 261.772278,220.671738 261.347290,221.067413 
z"/>
<path fill="#A2CC59" opacity="1.000000" stroke="none" 
	d="
M262.302612,220.014191 
	C262.215118,219.815231 262.375366,219.526657 262.756897,219.117554 
	C262.835541,219.306198 262.692932,219.615387 262.302612,220.014191 
z"/>
<path fill="#A7CB65" opacity="1.000000" stroke="none" 
	d="
M417.300537,69.111328 
	C417.297791,68.938835 417.541199,68.771286 417.890137,68.758797 
	C417.995667,68.913864 417.546722,69.116272 417.300537,69.111328 
z"/>
<path fill="#A7CB65" opacity="1.000000" stroke="none" 
	d="
M398.954895,67.331665 
	C399.149811,67.236298 399.445831,67.381844 399.866821,67.746071 
	C399.679840,67.834030 399.367950,67.703300 398.954895,67.331665 
z"/>
<path fill="#437BB3" opacity="1.000000" stroke="none" 
	d="
M177.226074,209.852814 
	C177.094315,209.582657 177.296783,209.339523 177.817963,209.095764 
	C177.972534,209.368454 177.780411,209.630035 177.226074,209.852814 
z"/>
<path fill="#437BB3" opacity="1.000000" stroke="none" 
	d="
M179.332275,208.100464 
	C179.261429,207.879562 179.456390,207.575623 179.918701,207.190399 
	C179.990051,207.411880 179.794067,207.714645 179.332275,208.100464 
z"/>
<path fill="#A7CB65" opacity="1.000000" stroke="none" 
	d="
M422.282043,66.945518 
	C422.265167,66.725372 422.526642,66.463203 423.074463,66.171120 
	C423.094055,66.395302 422.827240,66.649399 422.282043,66.945518 
z"/>
<path fill="#3C3C75" opacity="1.000000" stroke="none" 
	d="
M177.296890,80.035446 
	C177.272079,79.811249 177.522903,79.547707 178.057556,79.273987 
	C178.085098,79.507904 177.828812,79.752007 177.296890,80.035446 
z"/>
<path fill="#A7CB65" opacity="1.000000" stroke="none" 
	d="
M395.787109,65.350647 
	C395.980804,65.261902 396.336212,65.413666 396.830688,65.826981 
	C396.629456,65.922737 396.289093,65.756943 395.787109,65.350647 
z"/>
<path fill="#A0CC58" opacity="1.000000" stroke="none" 
	d="
M171.933289,110.350952 
	C172.167236,110.332848 172.470856,110.628311 172.821045,111.251808 
	C172.579391,111.274742 172.291183,110.969627 171.933289,110.350952 
z"/>
<path fill="#3957A0" opacity="1.000000" stroke="none" 
	d="
M16.902534,119.799744 
	C16.972870,120.001747 16.588802,120.001488 16.396774,120.000244 
	C16.164001,119.836876 16.123257,119.674759 16.146080,119.270111 
	C16.479572,119.149498 16.687088,119.339554 16.902534,119.799744 
z"/>
<path fill="#A5CE5B" opacity="1.000000" stroke="none" 
	d="
M281.351227,180.284668 
	C281.242249,180.096909 281.366211,179.724319 281.732910,179.179459 
	C281.845123,179.371399 281.714630,179.735626 281.351227,180.284668 
z"/>
<path fill="#9ECC56" opacity="1.000000" stroke="none" 
	d="
M396.354889,120.259361 
	C396.230347,120.076012 396.331787,119.722893 396.653137,119.199112 
	C396.775665,119.382164 396.678284,119.735878 396.354889,120.259361 
z"/>
<path fill="#9ECC56" opacity="1.000000" stroke="none" 
	d="
M395.379486,122.317230 
	C395.254089,122.120552 395.370850,121.740974 395.731201,121.183708 
	C395.857056,121.382126 395.739349,121.758232 395.379486,122.317230 
z"/>
<path fill="#A2CC59" opacity="1.000000" stroke="none" 
	d="
M251.039154,132.248535 
	C251.441315,132.149353 251.662491,132.335785 251.910736,132.795441 
	C251.811661,132.993011 251.625580,132.988464 251.160461,132.969116 
	C250.881439,132.954346 250.918091,132.463043 251.039154,132.248535 
z"/>
<path fill="#97BE66" opacity="1.000000" stroke="none" 
	d="
M433.031830,40.736710 
	C432.869049,40.733154 432.720062,40.481426 432.718811,40.127247 
	C432.866547,40.024796 433.045624,40.488537 433.031830,40.736710 
z"/>
<path fill="#437BB3" opacity="1.000000" stroke="none" 
	d="
M158.756134,170.081757 
	C158.809799,170.286438 158.608963,170.548401 158.171722,170.897842 
	C158.124100,170.703232 158.312866,170.421127 158.756134,170.081757 
z"/>
<path fill="#A5CE5B" opacity="1.000000" stroke="none" 
	d="
M246.678909,141.958755 
	C246.895294,142.209991 246.755478,142.499344 246.287842,142.856934 
	C246.198196,142.672470 246.319107,142.363037 246.678909,141.958755 
z"/>
<path fill="#9ECC56" opacity="1.000000" stroke="none" 
	d="
M344.836914,167.749329 
	C344.449860,167.826416 343.895966,167.659683 343.177734,167.247284 
	C343.565643,167.169586 344.117889,167.337555 344.836914,167.749329 
z"/>
<path fill="#9ECC56" opacity="1.000000" stroke="none" 
	d="
M342.828552,166.743011 
	C342.440552,166.821838 341.887573,166.655670 341.168518,166.244873 
	C341.556152,166.166153 342.109863,166.332092 342.828552,166.743011 
z"/>
<path fill="#9ECC56" opacity="1.000000" stroke="none" 
	d="
M334.979584,158.692856 
	C334.680054,158.525681 334.362549,158.063416 334.029297,157.305817 
	C334.329590,157.472916 334.645599,157.935349 334.979584,158.692856 
z"/>
<path fill="#9ECC56" opacity="1.000000" stroke="none" 
	d="
M335.892029,159.785736 
	C335.675232,159.903183 335.416870,159.715546 335.115784,159.224182 
	C335.334930,159.102707 335.594055,159.289444 335.892029,159.785736 
z"/>
<path fill="#3663AB" opacity="1.000000" stroke="none" 
	d="
M53.668068,114.034775 
	C53.129810,114.530876 52.255230,115.011810 51.185143,115.234093 
	C51.770336,114.656830 52.551041,114.338219 53.668068,114.034775 
z"/>
<path fill="#3663AB" opacity="1.000000" stroke="none" 
	d="
M48.657494,115.049530 
	C48.431107,115.221771 47.878162,115.369225 47.175545,115.312454 
	C47.460896,115.080399 47.895912,115.052574 48.657494,115.049530 
z"/>
<path fill="#3B4B46" opacity="1.000000" stroke="none" 
	d="
M406.467041,55.887413 
	C406.207977,55.735874 406.143219,55.580914 405.988342,54.740837 
	C406.066833,49.081615 406.235474,44.107517 406.553101,39.150261 
	C406.702026,39.167107 406.983398,39.063694 407.399323,39.088318 
	C410.217834,39.408199 412.620422,39.703453 415.023010,39.998703 
	C415.023010,39.998703 415.259308,40.144424 415.530334,40.429665 
	C416.182526,41.188206 416.563690,41.661507 416.955322,42.495483 
	C416.594299,44.447060 416.222839,46.037956 415.573334,47.741425 
	C414.840454,48.218544 414.385651,48.583096 413.930817,48.947643 
	C413.930817,48.947639 413.985992,48.992626 413.557556,48.960495 
	C411.602966,49.047623 410.076752,49.166878 408.520050,49.288521 
	C408.272278,51.802605 408.070312,53.852184 407.868347,55.901764 
	C407.868347,55.901764 407.954498,55.967220 407.715515,55.933876 
	C407.476532,55.900532 407.037415,55.982346 407.037415,55.982346 
	C407.037415,55.982346 406.661346,55.883991 406.467041,55.887413 
z"/>
<path fill="#3C4A4B" opacity="1.000000" stroke="none" 
	d="
M429.842926,51.126118 
	C429.923981,52.472996 430.021759,53.793324 430.049561,55.507309 
	C429.606659,55.896412 429.233673,55.891865 428.489502,55.605461 
	C427.763031,54.865936 427.407745,54.408268 427.052460,53.950603 
	C427.052460,53.950607 427.032379,53.978867 426.976318,53.588608 
	C424.396790,51.763664 421.940277,50.920204 419.926636,53.989880 
	C418.869781,54.163788 417.812897,54.337696 416.810181,53.902939 
	C416.933838,52.865074 417.003387,52.435879 417.072937,52.006683 
	C417.347443,51.878868 417.537140,51.672939 417.832031,50.844688 
	C419.666473,46.625069 421.310883,42.949654 423.223389,38.675037 
	C424.571869,40.302711 425.282898,41.160965 425.993927,42.019226 
	C425.993927,42.019230 426.003296,41.999928 426.020935,42.367336 
	C427.332703,45.518478 428.626831,48.302216 429.920959,51.085953 
	C429.920959,51.085953 429.859680,51.099571 429.842926,51.126118 
z"/>
<path fill="#97BE66" opacity="1.000000" stroke="none" 
	d="
M425.998840,41.612595 
	C425.282898,41.160965 424.571869,40.302711 423.223389,38.675037 
	C421.310883,42.949654 419.666473,46.625069 417.858337,50.631859 
	C417.280396,50.397156 416.866150,49.831085 416.197449,48.786339 
	C415.912445,48.081394 415.881927,47.855129 415.851410,47.628860 
	C416.222839,46.037956 416.594299,44.447060 416.976257,42.207733 
	C416.994507,41.367535 417.002258,41.175770 417.010040,40.984009 
	C418.369263,40.431267 419.920197,40.131718 421.050232,39.276226 
	C423.932770,37.094006 425.688049,37.120213 425.998840,41.612595 
z"/>
<path fill="#96B76C" opacity="1.000000" stroke="none" 
	d="
M408.254944,55.870193 
	C408.070312,53.852184 408.272278,51.802605 408.520050,49.288521 
	C410.076752,49.166878 411.602966,49.047623 413.558380,48.924919 
	C409.762390,49.338917 410.540466,53.623249 408.254944,55.870193 
z"/>
<path fill="#97BE66" opacity="1.000000" stroke="none" 
	d="
M420.373413,53.999332 
	C421.940277,50.920204 424.396790,51.763664 426.991699,53.570755 
	C424.982178,53.965034 422.901184,53.986912 420.373413,53.999332 
z"/>
<path fill="#96B76C" opacity="1.000000" stroke="none" 
	d="
M415.573334,47.741425 
	C415.881927,47.855129 415.912445,48.081394 415.969269,48.648994 
	C415.536560,48.993225 415.077545,48.996124 414.274658,48.973335 
	C414.385651,48.583096 414.840454,48.218544 415.573334,47.741425 
z"/>
<path fill="#97BE66" opacity="1.000000" stroke="none" 
	d="
M427.058533,54.275551 
	C427.407745,54.408268 427.763031,54.865936 428.209595,55.611649 
	C427.888763,55.466629 427.476685,55.033566 427.058533,54.275551 
z"/>
<path fill="#97BE66" opacity="1.000000" stroke="none" 
	d="
M416.846924,52.109634 
	C417.003387,52.435879 416.933838,52.865074 416.722229,53.588593 
	C416.593750,53.326141 416.607300,52.769367 416.846924,52.109634 
z"/>
<path fill="#96B76C" opacity="1.000000" stroke="none" 
	d="
M407.119019,56.155628 
	C407.037415,55.982346 407.476532,55.900532 407.698853,55.882416 
	C407.680969,56.019173 407.440796,56.174042 407.119019,56.155628 
z"/>
<path fill="#9CCC52" opacity="1.000000" stroke="none" 
	d="
M406.983398,39.063698 
	C406.983398,39.063694 406.702026,39.167107 406.190369,39.202244 
	C403.458588,38.827126 401.238434,38.416870 399.018311,38.006622 
	C398.536652,36.974941 397.804688,35.982285 397.636200,34.901775 
	C397.421631,33.525738 397.179230,31.119457 397.784515,30.814173 
	C402.543640,28.413816 405.405701,21.457588 412.728577,24.697506 
	C413.972351,26.659960 414.944061,28.341793 416.093536,30.331289 
	C415.543243,32.137836 414.772491,34.668015 413.583008,37.601585 
	C411.103943,38.357887 409.043671,38.710793 406.983398,39.063698 
z"/>
<path fill="#97BE66" opacity="1.000000" stroke="none" 
	d="
M429.946991,50.643547 
	C428.626831,48.302216 427.332703,45.518478 426.010345,42.367134 
	C431.004578,42.936787 429.978455,46.817307 429.946991,50.643547 
z"/>
<path fill="#96B76C" opacity="1.000000" stroke="none" 
	d="
M407.399323,39.088322 
	C409.043671,38.710793 411.103943,38.357887 413.584564,38.001198 
	C414.329834,38.465420 414.654785,38.933426 415.001373,39.700069 
	C412.620422,39.703453 410.217834,39.408199 407.399323,39.088322 
z"/>
<path fill="#96B76C" opacity="1.000000" stroke="none" 
	d="
M416.834106,40.743286 
	C417.002258,41.175770 416.994507,41.367535 416.965790,41.847054 
	C416.563690,41.661507 416.182526,41.188206 415.669098,40.433445 
	C415.910614,40.268845 416.284363,40.385704 416.834106,40.743286 
z"/>
<path fill="#405049" opacity="1.000000" stroke="none" 
	d="
M402.842896,53.890076 
	C401.110077,54.918442 399.377228,55.946812 397.071167,57.003788 
	C396.497894,57.032398 396.020447,57.090771 396.020447,57.090771 
	C396.020447,57.090771 395.641144,56.954170 395.307678,56.709671 
	C394.658661,56.347820 394.343109,56.230469 394.027588,56.113121 
	C393.319427,55.727779 392.611267,55.342430 391.603851,54.911343 
	C390.718445,53.516262 390.082336,52.186134 389.554962,50.814213 
	C387.430115,45.286545 390.265472,40.949780 397.788177,39.312550 
	C399.878021,40.617958 401.343597,41.738651 402.534821,42.994926 
	C401.631317,43.141033 400.993408,43.088242 400.374481,43.173321 
	C398.004303,43.499126 395.640167,43.869232 393.273804,44.222801 
	C393.769623,46.855999 394.265442,49.489201 395.031525,52.371281 
	C396.858063,52.405975 398.414307,52.191792 399.983459,51.990303 
	C399.996368,52.002998 399.986938,51.968876 400.253723,51.910591 
	C400.777863,51.602497 401.035217,51.352684 401.449524,51.124840 
	C401.606445,51.146809 401.922607,51.125172 402.109375,51.372307 
	C402.478363,52.376316 402.660614,53.133198 402.842896,53.890076 
z"/>
<path fill="#96B76C" opacity="1.000000" stroke="none" 
	d="
M403.163727,53.936501 
	C402.660614,53.133198 402.478363,52.376316 402.309357,51.080933 
	C404.723022,48.123135 405.987335,45.631901 402.809143,42.859341 
	C401.343597,41.738651 399.878021,40.617958 398.154968,39.280220 
	C398.184204,38.863472 398.470978,38.663773 398.888031,38.235348 
	C401.238434,38.416870 403.458588,38.827126 406.041443,39.185398 
	C406.235474,44.107517 406.066833,49.081615 405.867462,54.519814 
	C405.052704,54.650249 404.268616,54.316586 403.163727,53.936501 
z"/>
<path fill="#A7CB65" opacity="1.000000" stroke="none" 
	d="
M396.104614,57.240395 
	C396.020447,57.090771 396.497894,57.032398 396.733490,57.079987 
	C396.708984,57.215057 396.448853,57.302540 396.104614,57.240395 
z"/>
<path fill="#A7CB65" opacity="1.000000" stroke="none" 
	d="
M394.170105,56.324791 
	C394.343109,56.230469 394.658661,56.347820 395.106384,56.698524 
	C394.929901,56.800076 394.621277,56.668266 394.170105,56.324791 
z"/>
<path fill="#A1CA5D" opacity="1.000000" stroke="none" 
	d="
M402.534821,42.994923 
	C405.987335,45.631901 404.723022,48.123135 402.122620,50.833797 
	C401.922607,51.125172 401.606445,51.146809 401.173676,51.169716 
	C400.489594,51.451370 400.238251,51.710121 399.986938,51.968872 
	C399.986938,51.968876 399.996368,52.002998 399.552277,51.991646 
	C397.659210,52.027664 396.210205,52.075031 394.761230,52.122398 
	C394.265442,49.489201 393.769623,46.855999 393.273804,44.222801 
	C395.640167,43.869232 398.004303,43.499126 400.374481,43.173321 
	C400.993408,43.088242 401.631317,43.141033 402.534821,42.994923 
z"/>
<path fill="#96B76C" opacity="1.000000" stroke="none" 
	d="
M395.031525,52.371277 
	C396.210205,52.075031 397.659210,52.027664 399.539368,51.978954 
	C398.414307,52.191792 396.858063,52.405975 395.031525,52.371277 
z"/>
<path fill="#96B76C" opacity="1.000000" stroke="none" 
	d="
M400.253723,51.910591 
	C400.238251,51.710121 400.489594,51.451370 401.016724,51.147743 
	C401.035217,51.352684 400.777863,51.602497 400.253723,51.910591 
z"/>
</svg>