<svg version="1.1" id="Layer_1" xmlns="http://www.w3.org/2000/svg" xmlns:xlink="http://www.w3.org/1999/xlink" x="0px" y="0px"
	 width="100%" viewBox="0 0 1500 1473" enable-background="new 0 0 1500 1473" xml:space="preserve">
<path fill="#018128" opacity="1.000000" stroke="none" 
	d="
M0.999998,805.000000 
	C1.000000,799.645081 1.000000,794.290100 1.319721,788.189453 
	C1.787656,786.802734 2.064218,786.161926 2.065387,785.520569 
	C2.098137,767.554810 2.124491,749.588928 2.064627,731.623352 
	C2.060599,730.414429 1.370827,729.207703 0.999997,728.000000 
	C1.000000,721.312378 1.000000,714.624695 1.375330,707.254028 
	C2.287441,694.753357 2.564828,682.917053 3.410294,671.121521 
	C5.815700,637.562439 8.254322,604.003296 11.072760,570.477173 
	C12.774428,550.235291 13.755707,529.772949 17.614368,509.905701 
	C25.632582,468.621857 34.163933,427.364349 44.591938,386.635590 
	C76.089394,263.615601 122.909416,146.542007 184.055206,35.224743 
	C189.947662,24.497375 196.096481,13.910810 202.323105,2.911211 
	C248.407303,78.717896 286.120667,157.815750 317.409851,240.124176 
	C348.680023,322.382538 368.345428,407.669067 384.738190,493.806427 
	C418.017212,319.528107 480.953400,156.842117 568.593079,2.820975 
	C569.527710,4.115828 570.161621,4.868976 570.660339,5.702985 
	C595.517944,47.274342 618.895142,89.647110 639.732727,133.393143 
	C662.419067,181.020462 682.801880,229.601730 699.022217,279.825439 
	C721.027283,347.960754 735.640564,417.972534 751.056458,487.771973 
	C751.394470,489.302429 752.198792,490.729889 752.785522,492.205414 
	C753.298889,492.173004 753.812195,492.140594 754.325562,492.108215 
	C783.736572,317.401611 841.927673,153.320160 934.725159,2.249657 
	C1028.031006,155.110992 1093.091797,318.956787 1119.413452,497.383118 
	C1126.953125,464.112427 1134.151123,430.961792 1140.956787,397.730804 
	C1154.163086,333.248413 1172.186768,270.289093 1197.825928,209.524872 
	C1224.049438,147.375610 1253.956665,87.071564 1286.290405,27.924376 
	C1290.896362,19.499063 1295.473022,11.057711 1300.227295,2.322201 
	C1301.098755,3.451708 1301.646362,4.076402 1302.100830,4.762772 
	C1348.061157,74.158585 1384.704224,148.214294 1413.214844,226.372025 
	C1439.137329,297.434631 1457.876709,370.489899 1473.955200,444.281525 
	C1479.226929,468.475647 1483.900024,492.800171 1488.768066,517.432373 
	C1488.835083,518.532837 1488.980957,519.265991 1489.062866,520.427612 
	C1490.644531,535.714417 1492.787842,550.537720 1493.834839,565.438049 
	C1496.199097,599.084167 1498.015625,632.768799 1500.096924,666.435120 
	C1500.150635,667.305420 1500.688110,668.145752 1501.000000,669.000000 
	C1501.000000,696.687561 1501.000000,724.375122 1500.721680,752.840454 
	C1500.314087,764.409912 1500.184814,775.201477 1500.047119,786.459839 
	C1499.035522,810.564575 1498.314331,834.218750 1496.957520,857.836426 
	C1495.276245,887.101013 1494.344360,916.493103 1490.755249,945.541687 
	C1486.536255,979.687683 1480.661011,1013.692200 1473.970581,1047.454224 
	C1464.785156,1093.807739 1451.563354,1139.160034 1436.358276,1183.905884 
	C1407.868896,1267.744751 1371.438110,1348.033813 1328.134644,1425.229004 
	C1319.522461,1440.581421 1310.614136,1455.767700 1301.517456,1471.595825 
	C1215.127686,1318.664062 1147.678101,1159.457642 1118.195068,985.699402 
	C1104.968140,1072.205566 1081.545898,1155.897583 1050.654663,1237.554810 
	C1019.736145,1319.284180 981.756042,1397.614380 937.146606,1473.307739 
	C935.875366,1471.553223 935.077148,1470.501343 934.330688,1469.413940 
	C903.909912,1425.099487 878.573792,1377.968750 856.954407,1328.827026 
	C814.942078,1233.331543 786.001892,1133.672607 762.973755,1032.154053 
	C759.477600,1016.741394 756.172607,1001.285278 752.779236,985.849243 
	C721.056580,1158.996704 661.484009,1321.390991 569.842896,1472.274170 
	C475.227875,1321.900146 416.340942,1158.882202 386.133606,984.897217 
	C351.468353,1158.081055 290.701630,1321.122314 200.822433,1473.951782 
	C199.827698,1472.104980 199.336304,1471.238281 198.886307,1470.350464 
	C176.773788,1426.730835 154.222046,1383.326782 132.663116,1339.435181 
	C103.164627,1279.379639 77.048737,1217.916748 58.419739,1153.477173 
	C45.525364,1108.874146 34.907455,1063.727783 26.137815,1018.163025 
	C20.290386,987.781433 14.094525,957.371948 10.427703,926.691345 
	C6.458910,893.484192 5.263427,859.946228 2.821365,826.555298 
	C2.295445,819.364258 1.611271,812.184814 0.999998,805.000000 
M686.406433,597.500244 
	C686.407593,559.171875 686.433533,520.843445 686.361023,482.515198 
	C686.355469,479.565369 686.082214,476.483734 685.207581,473.690643 
	C681.332458,461.315369 673.054871,451.514069 664.620361,442.283997 
	C653.707764,430.341949 640.717590,420.801361 625.744263,413.988739 
	C611.908752,407.693756 597.336792,403.782745 582.480652,403.519562 
	C539.998596,402.766937 497.494568,403.257538 454.999176,403.259186 
	C453.213013,403.259247 451.426819,403.259186 450.372742,403.259186 
	C450.372742,615.343750 450.372742,826.872681 450.372742,1038.470459 
	C478.645966,1038.470459 505.691925,1038.470459 532.979187,1038.470459 
	C532.979187,1036.279663 532.979187,1034.457031 532.979187,1032.634521 
	C532.978210,949.976807 532.988159,867.319153 532.955811,784.661438 
	C532.953186,777.970642 533.871643,771.421387 538.829773,766.671143 
	C544.296448,761.433533 550.358948,756.789429 556.388306,752.183228 
	C558.406189,750.641602 561.061462,749.300720 563.527283,749.096069 
	C571.408936,748.442078 578.630066,749.711548 585.652954,754.504517 
	C596.620667,761.989624 602.478638,770.630737 602.389954,784.776855 
	C601.867859,868.097900 602.128784,951.423767 602.141052,1034.748047 
	C602.141296,1036.160278 602.331909,1037.572510 602.422241,1038.825806 
	C630.375305,1038.825806 657.780090,1038.825806 685.228271,1038.825806 
	C685.300842,1037.613770 685.393677,1036.786133 685.393799,1035.958618 
	C685.403748,954.467529 685.411011,872.976379 685.384949,791.485291 
	C685.384277,789.502502 685.200500,787.477661 684.776672,785.543701 
	C681.033447,768.462830 673.634277,752.869507 664.836243,737.925232 
	C661.987488,733.086304 658.499268,728.540588 654.795532,724.304993 
	C645.859070,714.085205 634.657898,707.092773 620.661926,702.363342 
	C625.413757,700.524963 629.222900,699.379089 632.716064,697.609619 
	C636.366699,695.760437 640.373169,693.924194 643.075378,691.015198 
	C653.143250,680.176880 663.105530,669.196960 672.411743,657.706665 
	C682.145691,645.688416 688.503235,632.259766 686.518433,615.984741 
	C685.817505,610.237549 686.406372,604.333008 686.406433,597.500244 
M1204.824219,677.221008 
	C1204.547119,679.031006 1204.245972,680.837708 1203.996704,682.651489 
	C1198.783081,720.579346 1193.564331,758.506592 1188.369751,796.437134 
	C1183.875122,829.257629 1179.428345,862.084656 1174.925659,894.903992 
	C1170.423218,927.722473 1165.863037,960.532959 1161.357544,993.351013 
	C1159.326416,1008.145569 1157.366211,1022.949951 1155.322144,1038.132935 
	C1181.991333,1038.132935 1208.248657,1038.132935 1234.692749,1038.132935 
	C1235.024414,1036.374756 1235.450073,1034.599976 1235.685181,1032.800171 
	C1242.479248,980.802124 1249.292480,928.806458 1255.953369,876.791321 
	C1256.439087,872.998901 1257.393677,871.417480 1261.638062,871.451782 
	C1287.299561,871.659363 1312.963501,871.542542 1338.626709,871.555359 
	C1340.241577,871.556152 1341.856323,871.734436 1343.761963,871.847412 
	C1344.950073,881.578857 1346.064941,890.972351 1347.248169,900.357239 
	C1352.851196,944.791687 1358.513672,989.218628 1364.013184,1033.665894 
	C1364.469849,1037.357300 1365.645386,1038.641602 1369.519897,1038.642578 
	C1393.848755,1038.648682 1418.177490,1038.934570 1442.506470,1039.098267 
	C1443.587646,1039.105591 1444.670654,1038.826538 1445.887207,1038.662720 
	C1416.606812,826.707397 1387.370483,615.070618 1358.149536,403.544922 
	C1319.092285,403.544922 1280.816772,403.544922 1242.267334,403.544922 
	C1237.822998,435.929596 1233.409424,468.062531 1229.004150,500.196594 
	C1224.821655,530.705688 1220.643921,561.215393 1216.471069,591.725830 
	C1212.614136,619.927795 1208.766602,648.131165 1204.824219,677.221008 
M908.457642,963.920837 
	C907.816528,958.690002 906.961792,953.473816 906.602417,948.223694 
	C906.318848,944.081604 906.693176,939.897766 906.693420,935.732483 
	C906.701599,790.747070 906.727722,645.761658 906.619934,500.776306 
	C906.614441,493.420563 908.061707,486.693115 911.207825,480.108246 
	C917.025452,467.931885 926.041565,461.174896 939.976257,460.790131 
	C959.854858,460.241272 973.159485,475.667572 973.374878,491.440430 
	C973.977722,535.590881 973.398071,579.757446 973.304016,623.917664 
	C973.299988,625.822449 973.484741,627.727661 973.570740,629.419678 
	C1002.014038,629.419678 1029.752075,629.419678 1057.593750,629.419678 
	C1057.679199,628.203125 1057.786621,627.386414 1057.786865,626.569641 
	C1057.798706,581.907532 1057.823486,537.245361 1057.758789,492.583374 
	C1057.754272,489.443542 1057.691284,486.077301 1056.618042,483.203766 
	C1051.279663,468.909698 1046.254395,454.522705 1035.485962,442.914368 
	C1021.764526,428.122772 1005.652344,417.161346 986.945862,409.798645 
	C970.065369,403.154633 952.565430,400.928589 934.559570,402.113403 
	C925.137451,402.733398 915.443909,402.247711 906.353210,404.344238 
	C873.001709,412.035950 845.176453,428.005585 828.132080,459.313843 
	C821.084473,472.259369 816.617249,485.698547 816.619507,500.545074 
	C816.642334,647.030334 816.574341,793.515686 816.681458,940.000793 
	C816.699463,964.607666 825.085144,986.263489 841.812683,1004.449890 
	C860.805237,1025.098877 885.126526,1035.345947 912.237488,1039.912231 
	C928.381409,1042.631226 944.665283,1044.800781 960.881592,1041.262939 
	C979.517090,1037.197388 997.027161,1029.845703 1013.403687,1020.123718 
	C1025.039551,1013.215881 1036.111694,1005.448669 1041.953735,992.389526 
	C1046.297729,982.678772 1050.940308,973.100281 1055.192993,963.350891 
	C1056.280396,960.858154 1056.876831,957.941650 1056.882812,955.218018 
	C1056.983521,909.556152 1056.954590,863.894043 1056.954468,818.231934 
	C1056.954468,816.461792 1056.954468,814.691711 1056.954468,812.967957 
	C1028.692505,812.967957 1001.099487,812.967957 973.079956,812.967957 
	C973.079956,815.227844 973.077209,817.191467 973.080383,819.155090 
	C973.149780,862.650330 973.270264,906.145691 973.212952,949.640747 
	C973.207153,954.078735 972.982666,958.846008 971.404480,962.893066 
	C965.715271,977.482727 945.892944,986.190979 930.883911,981.233032 
	C928.359802,980.399292 925.560852,980.036560 923.345093,978.699951 
	C917.460510,975.150024 911.046082,971.987976 908.457642,963.920837 
M164.372559,843.540466 
	C164.443146,834.208862 164.322296,824.870117 164.672592,815.549011 
	C164.826263,811.459778 163.706024,810.155090 159.464508,810.133545 
	C134.969254,810.009338 110.475594,809.575012 85.981155,809.264648 
	C84.528847,809.246277 83.074463,809.392578 81.375008,809.474121 
	C81.271164,811.224854 81.129425,812.681946 81.106270,814.140869 
	C80.500816,852.296570 79.758575,890.451111 79.412704,928.609253 
	C79.321312,938.691528 79.994484,948.837524 81.130714,958.862000 
	C83.337921,978.335266 93.429970,993.361877 108.779381,1005.107849 
	C116.448677,1010.976624 124.036102,1016.959656 131.843735,1022.639221 
	C182.104065,1059.200439 241.516602,1048.571655 282.312469,1013.700806 
	C289.118317,1007.883362 294.925659,1000.893982 301.163544,994.416443 
	C314.706635,980.353210 320.977844,962.632629 321.027832,944.021606 
	C321.506836,765.710083 321.308533,587.396606 321.304382,409.083740 
	C321.304352,407.306671 321.304382,405.529572 321.304382,403.536591 
	C292.935272,403.536591 265.199097,403.536591 237.019394,403.536591 
	C237.019394,405.269043 237.020447,406.733795 237.019211,408.198547 
	C236.979462,455.193115 236.972260,502.187744 236.893356,549.182251 
	C236.671173,681.499878 236.427017,813.817566 236.130798,946.135071 
	C236.124207,949.078918 236.189713,952.455261 234.863632,954.890381 
	C228.488586,966.597351 218.687820,974.714966 205.520401,976.827881 
	C182.154800,980.577209 163.945694,964.259827 164.000000,940.516968 
	C164.073181,908.521057 164.242462,876.525391 164.372559,843.540466 
z"/>
<path fill="#FEFFFE" opacity="1.000000" stroke="none" 
	d="
M0.999998,805.468628 
	C1.611271,812.184814 2.295445,819.364258 2.821365,826.555298 
	C5.263427,859.946228 6.458910,893.484192 10.427703,926.691345 
	C14.094525,957.371948 20.290386,987.781433 26.137815,1018.163025 
	C34.907455,1063.727783 45.525364,1108.874146 58.419739,1153.477173 
	C77.048737,1217.916748 103.164627,1279.379639 132.663116,1339.435181 
	C154.222046,1383.326782 176.773788,1426.730835 198.886307,1470.350464 
	C199.336304,1471.238281 199.827698,1472.104980 200.822433,1473.951782 
	C290.701630,1321.122314 351.468353,1158.081055 386.133606,984.897217 
	C416.340942,1158.882202 475.227875,1321.900146 569.842896,1472.274170 
	C661.484009,1321.390991 721.056580,1158.996704 752.779236,985.849243 
	C756.172607,1001.285278 759.477600,1016.741394 762.973755,1032.154053 
	C786.001892,1133.672607 814.942078,1233.331543 856.954407,1328.827026 
	C878.573792,1377.968750 903.909912,1425.099487 934.330688,1469.413940 
	C935.077148,1470.501343 935.875366,1471.553223 937.146606,1473.307739 
	C981.756042,1397.614380 1019.736145,1319.284180 1050.654663,1237.554810 
	C1081.545898,1155.897583 1104.968140,1072.205566 1118.195068,985.699402 
	C1147.678101,1159.457642 1215.127686,1318.664062 1301.517456,1471.595825 
	C1310.614136,1455.767700 1319.522461,1440.581421 1328.134644,1425.229004 
	C1371.438110,1348.033813 1407.868896,1267.744751 1436.358276,1183.905884 
	C1451.563354,1139.160034 1464.785156,1093.807739 1473.970581,1047.454224 
	C1480.661011,1013.692200 1486.536255,979.687683 1490.755249,945.541687 
	C1494.344360,916.493103 1495.276245,887.101013 1496.957520,857.836426 
	C1498.314331,834.218750 1499.035522,810.564575 1500.283569,786.407593 
	C1500.528442,785.888672 1501.000000,786.000000 1501.000000,786.000000 
	C1501.000000,1015.298279 1501.000000,1244.596558 1501.000000,1473.947510 
	C1001.111450,1473.947510 501.222931,1473.947510 1.000000,1473.947510 
	C1.000000,1251.312500 1.000000,1028.624878 0.999998,805.468628 
z"/>
<path fill="#FEFFFE" opacity="1.000000" stroke="none" 
	d="
M1488.846924,517.065063 
	C1483.900024,492.800171 1479.226929,468.475647 1473.955200,444.281525 
	C1457.876709,370.489899 1439.137329,297.434631 1413.214844,226.372025 
	C1384.704224,148.214294 1348.061157,74.158585 1302.100830,4.762772 
	C1301.646362,4.076402 1301.098755,3.451708 1300.227295,2.322201 
	C1295.473022,11.057711 1290.896362,19.499063 1286.290405,27.924376 
	C1253.956665,87.071564 1224.049438,147.375610 1197.825928,209.524872 
	C1172.186768,270.289093 1154.163086,333.248413 1140.956787,397.730804 
	C1134.151123,430.961792 1126.953125,464.112427 1119.413452,497.383118 
	C1093.091797,318.956787 1028.031006,155.110992 934.725159,2.249657 
	C841.927673,153.320160 783.736572,317.401611 754.325562,492.108215 
	C753.812195,492.140594 753.298889,492.173004 752.785522,492.205414 
	C752.198792,490.729889 751.394470,489.302429 751.056458,487.771973 
	C735.640564,417.972534 721.027283,347.960754 699.022217,279.825439 
	C682.801880,229.601730 662.419067,181.020462 639.732727,133.393143 
	C618.895142,89.647110 595.517944,47.274342 570.660339,5.702985 
	C570.161621,4.868976 569.527710,4.115828 568.593079,2.820975 
	C480.953400,156.842117 418.017212,319.528107 384.738190,493.806427 
	C368.345428,407.669067 348.680023,322.382538 317.409851,240.124176 
	C286.120667,157.815750 248.407303,78.717896 202.323105,2.911211 
	C196.096481,13.910810 189.947662,24.497375 184.055206,35.224743 
	C122.909416,146.542007 76.089394,263.615601 44.591938,386.635590 
	C34.163933,427.364349 25.632582,468.621857 17.614368,509.905701 
	C13.755707,529.772949 12.774428,550.235291 11.072760,570.477173 
	C8.254322,604.003296 5.815700,637.562439 3.410294,671.121521 
	C2.564828,682.917053 2.287441,694.753357 1.375330,706.785522 
	C1.000000,471.729004 1.000000,236.458038 1.000000,1.000000 
	C315.687531,1.000000 630.375122,1.000000 945.595947,1.384976 
	C946.018616,4.330145 946.352905,7.010515 945.700989,9.424529 
	C944.494385,13.892418 946.138977,17.049442 950.758911,16.604788 
	C954.058044,16.287249 955.287842,17.633423 956.445801,20.023443 
	C956.542114,20.222383 957.010986,20.240839 957.444153,20.390690 
	C958.166138,19.202091 958.914490,17.969990 959.897522,16.351622 
	C962.749390,20.388653 962.599670,23.193424 959.988525,25.437271 
	C954.041138,30.548101 964.846802,33.855167 961.259705,38.609970 
	C962.279114,39.363060 963.294373,40.121799 964.323181,40.861832 
	C964.447021,40.950874 964.680786,40.889271 964.801331,40.980133 
	C969.119568,44.235321 971.012207,49.799831 975.832764,52.605316 
	C976.084290,52.751713 975.894348,53.568455 976.012207,54.047977 
	C976.526489,56.140266 977.048706,58.231548 977.623962,60.307705 
	C978.569031,63.718693 980.582336,64.762939 984.293091,64.629204 
	C986.899536,64.535271 989.727417,66.274590 992.108154,67.755196 
	C992.600708,68.061546 991.496033,70.832214 991.241028,72.484627 
	C991.090881,73.457253 991.029419,74.482262 991.158325,75.453178 
	C992.255310,83.717079 993.405029,91.973984 994.595825,100.646973 
	C997.754089,98.371292 1000.846741,95.970596 1003.707336,99.976662 
	C1006.262268,103.554710 1008.605896,107.106926 1008.210571,112.154205 
	C1007.888977,116.259926 1009.199890,120.516296 1009.975830,124.670563 
	C1010.193298,125.834839 1010.821289,127.188881 1011.705383,127.914207 
	C1014.855896,130.498856 1018.276917,132.752518 1021.446228,135.316010 
	C1024.973145,138.168701 1024.933350,141.724579 1021.704895,145.149689 
	C1020.670166,146.247467 1019.938354,147.630722 1018.799011,149.270264 
	C1021.550842,148.627930 1023.263489,148.228149 1024.976196,147.828369 
	C1025.197876,149.729797 1025.500122,151.626907 1025.602783,153.534744 
	C1025.645752,154.331543 1025.015869,155.183868 1025.117432,155.954971 
	C1025.617432,159.755173 1025.103516,164.433777 1027.160522,167.085754 
	C1029.463379,170.054520 1031.955322,172.620834 1033.318115,176.288361 
	C1033.825806,177.654724 1036.608154,179.604538 1037.288940,179.249191 
	C1042.201538,176.684494 1042.007690,180.147888 1041.944336,183.013412 
	C1041.828491,188.261795 1041.594604,193.524170 1041.046509,198.742538 
	C1040.211548,206.692688 1043.485352,209.686188 1051.647461,208.580460 
	C1052.567383,208.455826 1054.638306,210.725113 1054.797363,212.049820 
	C1056.102783,222.918121 1056.941772,233.842224 1058.229980,244.712936 
	C1058.726440,248.901917 1061.224731,249.721283 1065.023560,247.907944 
	C1066.131226,247.379242 1068.311523,247.343475 1068.967651,248.045914 
	C1069.886475,249.029724 1070.146851,250.927017 1070.095093,252.412827 
	C1070.061157,253.387970 1068.979126,254.326660 1068.077026,255.733093 
	C1073.764648,258.855804 1074.382446,263.068390 1070.723022,268.075195 
	C1070.405151,268.510101 1070.331909,269.549042 1070.628784,269.943298 
	C1074.197876,274.684753 1072.677734,280.180725 1073.028931,285.391724 
	C1073.294556,289.332977 1075.235718,290.750061 1079.042969,289.477905 
	C1080.463623,289.003204 1082.036987,288.011841 1083.303833,288.299500 
	C1084.860962,288.653076 1086.170166,290.098358 1087.586548,291.071777 
	C1086.291016,291.856476 1085.034668,292.721283 1083.679932,293.384979 
	C1083.165649,293.636902 1082.424683,293.425903 1080.759521,293.425903 
	C1081.110352,296.065033 1080.604858,299.111389 1081.894775,300.697723 
	C1085.946533,305.680756 1091.241821,309.843719 1087.502686,317.453186 
	C1086.972168,318.532867 1087.851562,320.305389 1088.078735,321.757172 
	C1088.359253,323.548706 1088.775146,325.331024 1088.897339,327.133270 
	C1089.411255,334.713715 1089.786987,342.304047 1090.377075,349.877991 
	C1090.433228,350.598633 1091.533447,351.655853 1092.312622,351.831482 
	C1096.140137,352.694336 1099.173096,354.171295 1099.634033,358.657440 
	C1099.683594,359.139801 1100.827026,359.509735 1101.901245,360.222687 
	C1102.012207,359.070404 1102.008423,358.463776 1102.138672,357.887482 
	C1102.451416,356.502747 1102.791260,355.119293 1103.268188,353.788452 
	C1103.296631,353.708984 1105.242065,354.059265 1105.255371,354.273499 
	C1105.340576,355.661133 1105.335449,357.117371 1104.991943,358.456757 
	C1103.852173,362.899872 1102.525513,367.294830 1101.361084,371.731995 
	C1101.218018,372.277771 1101.602051,372.973297 1101.777222,373.589355 
	C1102.512085,376.173340 1103.698486,378.718903 1103.905884,381.342834 
	C1104.257446,385.791077 1103.731689,390.306702 1104.050293,394.759979 
	C1104.534058,401.521301 1105.282715,408.275269 1106.308594,414.972748 
	C1106.448975,415.888855 1108.989258,417.279785 1110.148438,417.055450 
	C1115.987793,415.925201 1121.406250,416.108490 1125.255249,419.544800 
	C1127.765259,418.124817 1129.845825,417.037964 1131.828857,415.795532 
	C1133.254028,414.902618 1135.865234,413.335388 1135.698975,412.866302 
	C1134.033813,408.170837 1139.119507,403.978516 1136.254272,398.979645 
	C1135.125854,397.010834 1137.336914,393.394409 1136.851074,390.743927 
	C1134.911621,380.162445 1137.090210,370.307770 1141.129028,360.640259 
	C1141.494019,359.766541 1141.842529,358.613586 1141.574829,357.793945 
	C1140.236084,353.692871 1138.614136,349.684174 1137.276855,345.582581 
	C1136.997803,344.726227 1137.501343,343.614777 1137.611694,342.847992 
	C1139.669678,343.905457 1141.424561,345.532074 1142.973389,345.354919 
	C1144.053345,345.231476 1145.828369,342.450623 1145.588013,341.179169 
	C1144.907715,337.581451 1146.918579,336.634857 1149.514526,336.131256 
	C1151.982300,335.652435 1152.202759,334.550690 1152.437866,332.078247 
	C1152.968018,326.506256 1154.144897,320.911652 1155.811890,315.560944 
	C1156.963867,311.863861 1159.004150,308.629303 1155.416870,305.200134 
	C1154.855225,304.663300 1155.322144,303.184509 1154.920166,302.325287 
	C1151.928711,295.931366 1152.208496,291.857391 1159.866943,288.100067 
	C1168.389038,283.918915 1169.383545,274.687988 1168.372437,265.884064 
	C1167.827515,261.138153 1168.169556,257.131409 1172.902588,254.720963 
	C1172.481689,253.989609 1172.154785,253.598083 1172.013794,253.148254 
	C1171.073853,250.150696 1169.832397,247.168915 1169.578857,244.108276 
	C1169.533691,243.563919 1173.599365,242.428711 1175.849487,241.995728 
	C1180.893555,241.025055 1186.120728,234.334915 1185.436523,229.870743 
	C1184.951172,226.703308 1184.949951,223.444519 1184.938110,220.225769 
	C1184.921875,215.811951 1183.246948,211.372040 1186.313477,207.032486 
	C1187.818726,204.902283 1187.170288,201.212585 1188.728516,199.167435 
	C1190.423950,196.942139 1193.359863,195.273376 1196.089600,194.305359 
	C1201.796997,192.281296 1202.458862,191.333969 1201.957764,185.525391 
	C1201.623169,181.646759 1202.321533,177.689117 1202.186523,173.779617 
	C1202.097534,171.204636 1201.102417,168.663284 1200.988647,166.085907 
	C1200.920898,164.548233 1201.569702,161.737442 1202.246216,161.626190 
	C1204.978882,161.176758 1207.962891,162.061829 1210.627563,161.457047 
	C1212.585327,161.012756 1214.803589,159.362427 1215.787231,157.618637 
	C1216.849976,155.734451 1216.615967,153.117294 1216.940796,150.818909 
	C1217.439819,147.286255 1218.219482,143.762726 1218.343140,140.216614 
	C1218.454346,137.022888 1217.843506,133.804031 1217.551147,130.596252 
	C1218.237305,130.941101 1218.923462,131.285934 1219.609619,131.630783 
	C1223.355835,129.503555 1229.423706,128.119537 1230.389526,125.102310 
	C1232.778320,117.639778 1236.178955,109.763733 1233.167358,101.432114 
	C1232.877075,100.629227 1233.358154,99.547607 1233.388184,99.314682 
	C1236.597900,98.089302 1239.227783,96.310661 1241.905762,96.235054 
	C1246.515381,96.104912 1247.609619,93.372429 1247.917114,89.865257 
	C1248.438477,83.918617 1248.521240,77.932594 1249.083496,71.991035 
	C1249.254272,70.185875 1249.910034,67.663841 1251.197266,66.889984 
	C1253.679565,65.397636 1256.735718,64.782982 1259.616455,64.049576 
	C1263.417847,63.081753 1268.196289,56.231953 1266.289795,53.055664 
	C1261.908569,45.756977 1266.314575,39.795860 1267.463257,34.870495 
	C1271.072632,33.769085 1273.362549,32.632526 1275.730347,32.436722 
	C1281.044067,31.997305 1280.956787,29.352808 1280.212158,24.959114 
	C1278.628540,15.614500 1281.200195,10.789462 1288.840820,6.598082 
	C1287.896362,4.736822 1286.948242,2.868402 1286.000000,0.999991 
	C1294.354248,1.000000 1302.708496,1.000000 1311.595459,1.381344 
	C1312.754395,4.983995 1313.637695,8.182428 1313.926880,11.433705 
	C1314.167480,14.140362 1314.828735,15.796316 1317.866943,16.088757 
	C1321.524902,16.440844 1325.147583,17.159702 1327.794678,17.567234 
	C1328.238525,21.801920 1328.653198,25.036798 1328.897949,28.284492 
	C1329.176758,31.981760 1329.161621,35.707504 1329.601562,39.381664 
	C1329.705811,40.252399 1331.086060,41.000401 1331.930420,41.747307 
	C1335.702393,45.084278 1339.514771,48.376244 1343.246826,51.756943 
	C1343.673218,52.143223 1343.944336,53.022957 1343.854980,53.607811 
	C1342.693604,61.210606 1350.194458,63.874626 1352.903931,69.271591 
	C1353.179443,69.820107 1355.627930,69.545929 1356.958618,69.214249 
	C1358.092041,68.931747 1359.067627,68.016228 1360.612061,67.077370 
	C1360.412720,71.577545 1360.046875,75.339119 1360.130615,79.090652 
	C1360.232910,83.671127 1360.301270,88.326340 1361.202637,92.783775 
	C1361.652588,95.008949 1363.577148,97.372437 1365.505981,98.692795 
	C1366.604004,99.444443 1369.053711,98.213028 1370.897095,97.887741 
	C1371.748779,97.737434 1372.606079,97.618484 1374.363037,97.344757 
	C1372.936768,99.536369 1372.009277,100.961662 1370.641602,103.063202 
	C1377.989136,105.128586 1376.615356,110.571487 1376.034424,115.855026 
	C1375.511719,120.610443 1375.857788,125.467056 1379.445557,128.946640 
	C1382.008789,131.432449 1385.376099,133.138412 1388.514038,134.970505 
	C1393.013428,137.597443 1393.283203,141.561279 1389.244873,144.812012 
	C1387.948242,145.855728 1387.191528,147.570007 1386.187744,148.977509 
	C1386.925903,149.560486 1387.663940,150.143463 1388.401978,150.726440 
	C1388.774414,149.808151 1388.946899,148.707458 1389.573364,148.020844 
	C1390.249023,147.280121 1391.605713,146.308533 1392.202271,146.555557 
	C1393.013672,146.891571 1393.727417,148.242325 1393.860840,149.240936 
	C1394.028564,150.497375 1393.356567,151.847351 1393.415405,153.140182 
	C1393.637207,158.008499 1393.999756,162.870636 1394.347534,167.732391 
	C1394.366943,168.004562 1394.681396,168.310364 1394.933105,168.503006 
	C1399.075073,171.673630 1403.369629,174.666718 1407.297974,178.081497 
	C1408.545044,179.165451 1408.823486,181.363632 1409.545166,183.051941 
	C1407.904175,182.829559 1406.263306,182.607178 1404.058228,182.308350 
	C1402.734863,184.226776 1402.513794,186.264725 1404.819580,189.088745 
	C1406.864868,191.593445 1408.572266,195.050537 1408.823608,198.214691 
	C1409.533203,207.147842 1414.161621,211.316208 1422.468262,209.739532 
	C1423.605103,216.004318 1426.587646,222.645370 1425.371460,228.398926 
	C1424.067993,234.565704 1425.256348,240.227539 1425.110474,246.077942 
	C1424.913940,253.959991 1427.370361,256.246246 1435.239380,257.020050 
	C1439.818848,257.470367 1441.646484,261.301880 1439.067261,265.234558 
	C1438.348389,266.330872 1437.333008,267.266357 1436.334473,268.139191 
	C1433.683105,270.456696 1433.854248,272.521179 1436.883667,274.759155 
	C1437.725098,273.294708 1438.508667,271.931030 1439.292358,270.567383 
	C1439.985474,270.852692 1440.678711,271.138031 1441.371826,271.423370 
	C1441.562378,273.880829 1442.657471,276.740997 1441.775879,278.721100 
	C1439.002441,284.950256 1441.485596,291.145538 1441.173218,297.317230 
	C1440.914917,302.418488 1444.534912,305.123199 1449.603760,304.841461 
	C1455.277954,304.526062 1457.923096,308.676239 1455.691406,314.941803 
	C1453.779541,313.346130 1451.946777,311.816406 1450.114014,310.286682 
	C1450.933594,316.412994 1458.597046,319.026978 1456.453491,326.300751 
	C1455.269653,325.570374 1454.172974,324.893707 1453.076172,324.217041 
	C1452.676880,324.416656 1452.277466,324.616241 1451.878174,324.815857 
	C1452.398315,326.517303 1452.889526,328.228302 1453.444580,329.918243 
	C1454.612183,333.473053 1456.411255,336.939941 1456.879517,340.580750 
	C1457.939941,348.827118 1458.195557,357.175659 1459.185425,365.433807 
	C1459.342896,366.746033 1461.437256,368.289032 1462.958374,368.848602 
	C1464.574951,369.443207 1466.619873,368.748657 1468.395874,369.069550 
	C1470.202881,369.395996 1473.101074,369.920288 1473.416626,370.982758 
	C1474.096680,373.273956 1473.427490,375.965698 1473.310425,378.493530 
	C1472.816895,378.505371 1472.323486,378.517242 1471.830078,378.529114 
	C1470.848877,377.241821 1469.867798,375.954559 1468.625977,374.325287 
	C1467.647949,380.429443 1467.847046,380.868439 1471.451416,384.496124 
	C1472.177734,385.227386 1472.991089,386.631683 1472.760132,387.437988 
	C1470.339478,395.891724 1473.134399,404.038239 1473.847168,412.319489 
	C1474.227905,416.742279 1474.463013,421.509644 1473.209717,425.651093 
	C1471.856201,430.123383 1474.172241,430.831177 1477.062134,431.959381 
	C1478.505737,432.523010 1481.190308,433.533142 1481.124023,433.802826 
	C1479.892822,438.808411 1482.679443,440.912964 1485.909180,444.337189 
	C1488.741943,447.340424 1488.552612,453.926788 1488.349976,458.875336 
	C1488.095093,465.104187 1486.280151,471.114227 1488.873535,477.449432 
	C1490.089478,480.419983 1489.372070,484.245789 1489.271484,487.676392 
	C1489.119629,492.859924 1488.734009,498.036469 1488.476440,503.217377 
	C1488.461548,503.516144 1488.629883,503.896545 1488.838745,504.123108 
	C1492.818481,508.441589 1490.023682,512.752747 1488.846924,517.065063 
z"/>
<path fill="#FFFFFF" opacity="1.000000" stroke="none" 
	d="
M1285.531372,0.999991 
	C1286.948242,2.868402 1287.896362,4.736822 1288.840820,6.598082 
	C1281.200195,10.789462 1278.628540,15.614500 1280.212158,24.959114 
	C1280.956787,29.352808 1281.044067,31.997305 1275.730347,32.436722 
	C1273.362549,32.632526 1271.072632,33.769085 1267.463257,34.870495 
	C1266.314575,39.795860 1261.908569,45.756977 1266.289795,53.055664 
	C1268.196289,56.231953 1263.417847,63.081753 1259.616455,64.049576 
	C1256.735718,64.782982 1253.679565,65.397636 1251.197266,66.889984 
	C1249.910034,67.663841 1249.254272,70.185875 1249.083496,71.991035 
	C1248.521240,77.932594 1248.438477,83.918617 1247.917114,89.865257 
	C1247.609619,93.372429 1246.515381,96.104912 1241.905762,96.235054 
	C1239.227783,96.310661 1236.597900,98.089302 1233.388184,99.314682 
	C1233.358154,99.547607 1232.877075,100.629227 1233.167358,101.432114 
	C1236.178955,109.763733 1232.778320,117.639778 1230.389526,125.102310 
	C1229.423706,128.119537 1223.355835,129.503555 1219.609619,131.630783 
	C1218.923462,131.285934 1218.237305,130.941101 1217.551147,130.596252 
	C1217.843506,133.804031 1218.454346,137.022888 1218.343140,140.216614 
	C1218.219482,143.762726 1217.439819,147.286255 1216.940796,150.818909 
	C1216.615967,153.117294 1216.849976,155.734451 1215.787231,157.618637 
	C1214.803589,159.362427 1212.585327,161.012756 1210.627563,161.457047 
	C1207.962891,162.061829 1204.978882,161.176758 1202.246216,161.626190 
	C1201.569702,161.737442 1200.920898,164.548233 1200.988647,166.085907 
	C1201.102417,168.663284 1202.097534,171.204636 1202.186523,173.779617 
	C1202.321533,177.689117 1201.623169,181.646759 1201.957764,185.525391 
	C1202.458862,191.333969 1201.796997,192.281296 1196.089600,194.305359 
	C1193.359863,195.273376 1190.423950,196.942139 1188.728516,199.167435 
	C1187.170288,201.212585 1187.818726,204.902283 1186.313477,207.032486 
	C1183.246948,211.372040 1184.921875,215.811951 1184.938110,220.225769 
	C1184.949951,223.444519 1184.951172,226.703308 1185.436523,229.870743 
	C1186.120728,234.334915 1180.893555,241.025055 1175.849487,241.995728 
	C1173.599365,242.428711 1169.533691,243.563919 1169.578857,244.108276 
	C1169.832397,247.168915 1171.073853,250.150696 1172.013794,253.148254 
	C1172.154785,253.598083 1172.481689,253.989609 1172.902588,254.720963 
	C1168.169556,257.131409 1167.827515,261.138153 1168.372437,265.884064 
	C1169.383545,274.687988 1168.389038,283.918915 1159.866943,288.100067 
	C1152.208496,291.857391 1151.928711,295.931366 1154.920166,302.325287 
	C1155.322144,303.184509 1154.855225,304.663300 1155.416870,305.200134 
	C1159.004150,308.629303 1156.963867,311.863861 1155.811890,315.560944 
	C1154.144897,320.911652 1152.968018,326.506256 1152.437866,332.078247 
	C1152.202759,334.550690 1151.982300,335.652435 1149.514526,336.131256 
	C1146.918579,336.634857 1144.907715,337.581451 1145.588013,341.179169 
	C1145.828369,342.450623 1144.053345,345.231476 1142.973389,345.354919 
	C1141.424561,345.532074 1139.669678,343.905457 1137.611694,342.847992 
	C1137.501343,343.614777 1136.997803,344.726227 1137.276855,345.582581 
	C1138.614136,349.684174 1140.236084,353.692871 1141.574829,357.793945 
	C1141.842529,358.613586 1141.494019,359.766541 1141.129028,360.640259 
	C1137.090210,370.307770 1134.911621,380.162445 1136.851074,390.743927 
	C1137.336914,393.394409 1135.125854,397.010834 1136.254272,398.979645 
	C1139.119507,403.978516 1134.033813,408.170837 1135.698975,412.866302 
	C1135.865234,413.335388 1133.254028,414.902618 1131.828857,415.795532 
	C1129.845825,417.037964 1127.765259,418.124817 1125.255249,419.544800 
	C1121.406250,416.108490 1115.987793,415.925201 1110.148438,417.055450 
	C1108.989258,417.279785 1106.448975,415.888855 1106.308594,414.972748 
	C1105.282715,408.275269 1104.534058,401.521301 1104.050293,394.759979 
	C1103.731689,390.306702 1104.257446,385.791077 1103.905884,381.342834 
	C1103.698486,378.718903 1102.512085,376.173340 1101.777222,373.589355 
	C1101.602051,372.973297 1101.218018,372.277771 1101.361084,371.731995 
	C1102.525513,367.294830 1103.852173,362.899872 1104.991943,358.456757 
	C1105.335449,357.117371 1105.340576,355.661133 1105.255371,354.273499 
	C1105.242065,354.059265 1103.296631,353.708984 1103.268188,353.788452 
	C1102.791260,355.119293 1102.451416,356.502747 1102.138672,357.887482 
	C1102.008423,358.463776 1102.012207,359.070404 1101.901245,360.222687 
	C1100.827026,359.509735 1099.683594,359.139801 1099.634033,358.657440 
	C1099.173096,354.171295 1096.140137,352.694336 1092.312622,351.831482 
	C1091.533447,351.655853 1090.433228,350.598633 1090.377075,349.877991 
	C1089.786987,342.304047 1089.411255,334.713715 1088.897339,327.133270 
	C1088.775146,325.331024 1088.359253,323.548706 1088.078735,321.757172 
	C1087.851562,320.305389 1086.972168,318.532867 1087.502686,317.453186 
	C1091.241821,309.843719 1085.946533,305.680756 1081.894775,300.697723 
	C1080.604858,299.111389 1081.110352,296.065033 1080.759521,293.425903 
	C1082.424683,293.425903 1083.165649,293.636902 1083.679932,293.384979 
	C1085.034668,292.721283 1086.291016,291.856476 1087.586548,291.071777 
	C1086.170166,290.098358 1084.860962,288.653076 1083.303833,288.299500 
	C1082.036987,288.011841 1080.463623,289.003204 1079.042969,289.477905 
	C1075.235718,290.750061 1073.294556,289.332977 1073.028931,285.391724 
	C1072.677734,280.180725 1074.197876,274.684753 1070.628784,269.943298 
	C1070.331909,269.549042 1070.405151,268.510101 1070.723022,268.075195 
	C1074.382446,263.068390 1073.764648,258.855804 1068.077026,255.733093 
	C1068.979126,254.326660 1070.061157,253.387970 1070.095093,252.412827 
	C1070.146851,250.927017 1069.886475,249.029724 1068.967651,248.045914 
	C1068.311523,247.343475 1066.131226,247.379242 1065.023560,247.907944 
	C1061.224731,249.721283 1058.726440,248.901917 1058.229980,244.712936 
	C1056.941772,233.842224 1056.102783,222.918121 1054.797363,212.049820 
	C1054.638306,210.725113 1052.567383,208.455826 1051.647461,208.580460 
	C1043.485352,209.686188 1040.211548,206.692688 1041.046509,198.742538 
	C1041.594604,193.524170 1041.828491,188.261795 1041.944336,183.013412 
	C1042.007690,180.147888 1042.201538,176.684494 1037.288940,179.249191 
	C1036.608154,179.604538 1033.825806,177.654724 1033.318115,176.288361 
	C1031.955322,172.620834 1029.463379,170.054520 1027.160522,167.085754 
	C1025.103516,164.433777 1025.617432,159.755173 1025.117432,155.954971 
	C1025.015869,155.183868 1025.645752,154.331543 1025.602783,153.534744 
	C1025.500122,151.626907 1025.197876,149.729797 1024.976196,147.828369 
	C1023.263489,148.228149 1021.550842,148.627930 1018.799011,149.270264 
	C1019.938354,147.630722 1020.670166,146.247467 1021.704895,145.149689 
	C1024.933350,141.724579 1024.973145,138.168701 1021.446228,135.316010 
	C1018.276917,132.752518 1014.855896,130.498856 1011.705383,127.914207 
	C1010.821289,127.188881 1010.193298,125.834839 1009.975830,124.670563 
	C1009.199890,120.516296 1007.888977,116.259926 1008.210571,112.154205 
	C1008.605896,107.106926 1006.262268,103.554710 1003.707336,99.976662 
	C1000.846741,95.970596 997.754089,98.371292 994.595825,100.646973 
	C993.405029,91.973984 992.255310,83.717079 991.158325,75.453178 
	C991.029419,74.482262 991.090881,73.457253 991.241028,72.484627 
	C991.496033,70.832214 992.600708,68.061546 992.108154,67.755196 
	C989.727417,66.274590 986.899536,64.535271 984.293091,64.629204 
	C980.582336,64.762939 978.569031,63.718693 977.623962,60.307705 
	C977.048706,58.231548 976.526489,56.140266 976.012207,54.047977 
	C975.894348,53.568455 976.084290,52.751713 975.832764,52.605316 
	C971.012207,49.799831 969.119568,44.235321 964.801331,40.980133 
	C964.680786,40.889271 964.447021,40.950874 964.323181,40.861832 
	C963.294373,40.121799 962.279114,39.363060 961.259705,38.609970 
	C964.846802,33.855167 954.041138,30.548101 959.988525,25.437271 
	C962.599670,23.193424 962.749390,20.388653 959.897522,16.351622 
	C958.914490,17.969990 958.166138,19.202091 957.444153,20.390690 
	C957.010986,20.240839 956.542114,20.222383 956.445801,20.023443 
	C955.287842,17.633423 954.058044,16.287249 950.758911,16.604788 
	C946.138977,17.049442 944.494385,13.892418 945.700989,9.424529 
	C946.352905,7.010515 946.018616,4.330145 946.064636,1.384976 
	C1059.020874,1.000000 1172.041870,1.000000 1285.531372,0.999991 
M1033.121216,167.682175 
	C1033.966431,168.267365 1034.811646,168.852554 1035.656738,169.437759 
	C1035.807251,168.433990 1035.957764,167.430222 1036.108276,166.426468 
	C1035.150757,166.621552 1034.193115,166.816635 1033.121216,167.682175 
M1088.744507,298.506836 
	C1088.462402,298.225983 1088.180176,297.945160 1087.898071,297.664368 
	C1087.700562,298.011688 1087.502930,298.359009 1087.305298,298.706329 
	C1087.745239,298.805145 1088.185303,298.903961 1088.744507,298.506836 
M1023.767090,131.428879 
	C1023.944336,131.176468 1024.121582,130.924042 1024.298950,130.671631 
	C1024.036255,130.833191 1023.773621,130.994766 1023.767090,131.428879 
z"/>
<path fill="#FFFFFF" opacity="1.000000" stroke="none" 
	d="
M1488.768066,517.432373 
	C1490.023682,512.752747 1492.818481,508.441589 1488.838745,504.123108 
	C1488.629883,503.896545 1488.461548,503.516144 1488.476440,503.217377 
	C1488.734009,498.036469 1489.119629,492.859924 1489.271484,487.676392 
	C1489.372070,484.245789 1490.089478,480.419983 1488.873535,477.449432 
	C1486.280151,471.114227 1488.095093,465.104187 1488.349976,458.875336 
	C1488.552612,453.926788 1488.741943,447.340424 1485.909180,444.337189 
	C1482.679443,440.912964 1479.892822,438.808411 1481.124023,433.802826 
	C1481.190308,433.533142 1478.505737,432.523010 1477.062134,431.959381 
	C1474.172241,430.831177 1471.856201,430.123383 1473.209717,425.651093 
	C1474.463013,421.509644 1474.227905,416.742279 1473.847168,412.319489 
	C1473.134399,404.038239 1470.339478,395.891724 1472.760132,387.437988 
	C1472.991089,386.631683 1472.177734,385.227386 1471.451416,384.496124 
	C1467.847046,380.868439 1467.647949,380.429443 1468.625977,374.325287 
	C1469.867798,375.954559 1470.848877,377.241821 1471.830078,378.529114 
	C1472.323486,378.517242 1472.816895,378.505371 1473.310425,378.493530 
	C1473.427490,375.965698 1474.096680,373.273956 1473.416626,370.982758 
	C1473.101074,369.920288 1470.202881,369.395996 1468.395874,369.069550 
	C1466.619873,368.748657 1464.574951,369.443207 1462.958374,368.848602 
	C1461.437256,368.289032 1459.342896,366.746033 1459.185425,365.433807 
	C1458.195557,357.175659 1457.939941,348.827118 1456.879517,340.580750 
	C1456.411255,336.939941 1454.612183,333.473053 1453.444580,329.918243 
	C1452.889526,328.228302 1452.398315,326.517303 1451.878174,324.815857 
	C1452.277466,324.616241 1452.676880,324.416656 1453.076172,324.217041 
	C1454.172974,324.893707 1455.269653,325.570374 1456.453491,326.300751 
	C1458.597046,319.026978 1450.933594,316.412994 1450.114014,310.286682 
	C1451.946777,311.816406 1453.779541,313.346130 1455.691406,314.941803 
	C1457.923096,308.676239 1455.277954,304.526062 1449.603760,304.841461 
	C1444.534912,305.123199 1440.914917,302.418488 1441.173218,297.317230 
	C1441.485596,291.145538 1439.002441,284.950256 1441.775879,278.721100 
	C1442.657471,276.740997 1441.562378,273.880829 1441.371826,271.423370 
	C1440.678711,271.138031 1439.985474,270.852692 1439.292358,270.567383 
	C1438.508667,271.931030 1437.725098,273.294708 1436.883667,274.759155 
	C1433.854248,272.521179 1433.683105,270.456696 1436.334473,268.139191 
	C1437.333008,267.266357 1438.348389,266.330872 1439.067261,265.234558 
	C1441.646484,261.301880 1439.818848,257.470367 1435.239380,257.020050 
	C1427.370361,256.246246 1424.913940,253.959991 1425.110474,246.077942 
	C1425.256348,240.227539 1424.067993,234.565704 1425.371460,228.398926 
	C1426.587646,222.645370 1423.605103,216.004318 1422.468262,209.739532 
	C1414.161621,211.316208 1409.533203,207.147842 1408.823608,198.214691 
	C1408.572266,195.050537 1406.864868,191.593445 1404.819580,189.088745 
	C1402.513794,186.264725 1402.734863,184.226776 1404.058228,182.308350 
	C1406.263306,182.607178 1407.904175,182.829559 1409.545166,183.051941 
	C1408.823486,181.363632 1408.545044,179.165451 1407.297974,178.081497 
	C1403.369629,174.666718 1399.075073,171.673630 1394.933105,168.503006 
	C1394.681396,168.310364 1394.366943,168.004562 1394.347534,167.732391 
	C1393.999756,162.870636 1393.637207,158.008499 1393.415405,153.140182 
	C1393.356567,151.847351 1394.028564,150.497375 1393.860840,149.240936 
	C1393.727417,148.242325 1393.013672,146.891571 1392.202271,146.555557 
	C1391.605713,146.308533 1390.249023,147.280121 1389.573364,148.020844 
	C1388.946899,148.707458 1388.774414,149.808151 1388.401978,150.726440 
	C1387.663940,150.143463 1386.925903,149.560486 1386.187744,148.977509 
	C1387.191528,147.570007 1387.948242,145.855728 1389.244873,144.812012 
	C1393.283203,141.561279 1393.013428,137.597443 1388.514038,134.970505 
	C1385.376099,133.138412 1382.008789,131.432449 1379.445557,128.946640 
	C1375.857788,125.467056 1375.511719,120.610443 1376.034424,115.855026 
	C1376.615356,110.571487 1377.989136,105.128586 1370.641602,103.063202 
	C1372.009277,100.961662 1372.936768,99.536369 1374.363037,97.344757 
	C1372.606079,97.618484 1371.748779,97.737434 1370.897095,97.887741 
	C1369.053711,98.213028 1366.604004,99.444443 1365.505981,98.692795 
	C1363.577148,97.372437 1361.652588,95.008949 1361.202637,92.783775 
	C1360.301270,88.326340 1360.232910,83.671127 1360.130615,79.090652 
	C1360.046875,75.339119 1360.412720,71.577545 1360.612061,67.077370 
	C1359.067627,68.016228 1358.092041,68.931747 1356.958618,69.214249 
	C1355.627930,69.545929 1353.179443,69.820107 1352.903931,69.271591 
	C1350.194458,63.874626 1342.693604,61.210606 1343.854980,53.607811 
	C1343.944336,53.022957 1343.673218,52.143223 1343.246826,51.756943 
	C1339.514771,48.376244 1335.702393,45.084278 1331.930420,41.747307 
	C1331.086060,41.000401 1329.705811,40.252399 1329.601562,39.381664 
	C1329.161621,35.707504 1329.176758,31.981760 1328.897949,28.284492 
	C1328.653198,25.036798 1328.238525,21.801920 1327.794678,17.567234 
	C1325.147583,17.159702 1321.524902,16.440844 1317.866943,16.088757 
	C1314.828735,15.796316 1314.167480,14.140362 1313.926880,11.433705 
	C1313.637695,8.182428 1312.754395,4.983995 1312.064209,1.381344 
	C1374.961060,1.000000 1437.922119,1.000000 1501.000000,1.000000 
	C1501.000000,173.687546 1501.000000,346.375122 1500.636475,519.544189 
	C1496.551392,522.633728 1492.843262,519.610840 1489.126953,519.999084 
	C1488.980957,519.265991 1488.835083,518.532837 1488.768066,517.432373 
M1392.614746,131.015045 
	C1392.396484,130.565903 1392.178223,130.116776 1391.959961,129.667648 
	C1391.750732,129.846115 1391.340576,130.147034 1391.363281,130.184250 
	C1391.616211,130.599731 1391.936157,130.974411 1392.614746,131.015045 
z"/>
<path fill="#FEFFFE" opacity="1.000000" stroke="none" 
	d="
M1489.062866,520.427612 
	C1492.843262,519.610840 1496.551392,522.633728 1500.636475,520.012878 
	C1501.000000,569.354248 1501.000000,618.708435 1501.000000,668.531372 
	C1500.688110,668.145752 1500.150635,667.305420 1500.096924,666.435120 
	C1498.015625,632.768799 1496.199097,599.084167 1493.834839,565.438049 
	C1492.787842,550.537720 1490.644531,535.714417 1489.062866,520.427612 
M1496.315308,526.242676 
	C1496.940430,526.601685 1497.565430,526.960754 1498.190552,527.319763 
	C1498.183960,526.720825 1498.177490,526.121887 1498.170898,525.522949 
	C1497.519653,525.570374 1496.868408,525.617798 1496.315308,526.242676 
z"/>
<path fill="#279D4A" opacity="1.000000" stroke="none" 
	d="
M0.999997,728.468628 
	C1.370827,729.207703 2.060599,730.414429 2.064627,731.623352 
	C2.124491,749.588928 2.098137,767.554810 2.065387,785.520569 
	C2.064218,786.161926 1.787656,786.802734 1.319721,787.721924 
	C1.000000,768.312439 1.000000,748.624878 0.999997,728.468628 
z"/>
<path fill="#74D291" opacity="1.000000" stroke="none" 
	d="
M1501.000000,785.531372 
	C1501.000000,786.000000 1500.528442,785.888672 1500.291992,785.940918 
	C1500.184814,775.201477 1500.314087,764.409912 1500.721680,753.309143 
	C1501.000000,763.687561 1501.000000,774.375122 1501.000000,785.531372 
z"/>
<path fill="#FEFFFE" opacity="1.000000" stroke="none" 
	d="
M686.406433,598.000244 
	C686.406372,604.333008 685.817505,610.237549 686.518433,615.984741 
	C688.503235,632.259766 682.145691,645.688416 672.411743,657.706665 
	C663.105530,669.196960 653.143250,680.176880 643.075378,691.015198 
	C640.373169,693.924194 636.366699,695.760437 632.716064,697.609619 
	C629.222900,699.379089 625.413757,700.524963 620.661926,702.363342 
	C634.657898,707.092773 645.859070,714.085205 654.795532,724.304993 
	C658.499268,728.540588 661.987488,733.086304 664.836243,737.925232 
	C673.634277,752.869507 681.033447,768.462830 684.776672,785.543701 
	C685.200500,787.477661 685.384277,789.502502 685.384949,791.485291 
	C685.411011,872.976379 685.403748,954.467529 685.393799,1035.958618 
	C685.393677,1036.786133 685.300842,1037.613770 685.228271,1038.825806 
	C657.780090,1038.825806 630.375305,1038.825806 602.422241,1038.825806 
	C602.331909,1037.572510 602.141296,1036.160278 602.141052,1034.748047 
	C602.128784,951.423767 601.867859,868.097900 602.389954,784.776855 
	C602.478638,770.630737 596.620667,761.989624 585.652954,754.504517 
	C578.630066,749.711548 571.408936,748.442078 563.527283,749.096069 
	C561.061462,749.300720 558.406189,750.641602 556.388306,752.183228 
	C550.358948,756.789429 544.296448,761.433533 538.829773,766.671143 
	C533.871643,771.421387 532.953186,777.970642 532.955811,784.661438 
	C532.988159,867.319153 532.978210,949.976807 532.979187,1032.634521 
	C532.979187,1034.457031 532.979187,1036.279663 532.979187,1038.470459 
	C505.691925,1038.470459 478.645966,1038.470459 450.372742,1038.470459 
	C450.372742,826.872681 450.372742,615.343750 450.372742,403.259186 
	C451.426819,403.259186 453.213013,403.259247 454.999176,403.259186 
	C497.494568,403.257538 539.998596,402.766937 582.480652,403.519562 
	C597.336792,403.782745 611.908752,407.693756 625.744263,413.988739 
	C640.717590,420.801361 653.707764,430.341949 664.620361,442.283997 
	C673.054871,451.514069 681.332458,461.315369 685.207581,473.690643 
	C686.082214,476.483734 686.355469,479.565369 686.361023,482.515198 
	C686.433533,520.843445 686.407593,559.171875 686.406433,598.000244 
M535.136841,496.968445 
	C534.850708,499.105194 534.317139,501.241699 534.314697,503.378754 
	C534.259888,551.511047 534.254150,599.643433 534.296692,647.775696 
	C534.298096,649.366638 534.435364,651.293335 535.300842,652.492249 
	C540.395813,659.550598 546.008789,665.841919 555.200256,667.919617 
	C566.792175,670.540039 577.306885,668.772644 586.672424,661.460083 
	C594.479736,655.364136 599.167725,646.838745 603.484192,638.200806 
	C604.999512,635.168457 606.181641,631.584229 606.196899,628.246033 
	C606.384644,587.276123 606.432556,546.304565 606.265015,505.334503 
	C606.218872,494.051453 601.561768,484.004120 592.260193,477.997467 
	C569.308228,463.175903 547.607849,471.528137 535.136841,496.968445 
z"/>
<path fill="#FDFFFE" opacity="1.000000" stroke="none" 
	d="
M1204.869507,676.777466 
	C1208.766602,648.131165 1212.614136,619.927795 1216.471069,591.725830 
	C1220.643921,561.215393 1224.821655,530.705688 1229.004150,500.196594 
	C1233.409424,468.062531 1237.822998,435.929596 1242.267334,403.544922 
	C1280.816772,403.544922 1319.092285,403.544922 1358.149536,403.544922 
	C1387.370483,615.070618 1416.606812,826.707397 1445.887207,1038.662720 
	C1444.670654,1038.826538 1443.587646,1039.105591 1442.506470,1039.098267 
	C1418.177490,1038.934570 1393.848755,1038.648682 1369.519897,1038.642578 
	C1365.645386,1038.641602 1364.469849,1037.357300 1364.013184,1033.665894 
	C1358.513672,989.218628 1352.851196,944.791687 1347.248169,900.357239 
	C1346.064941,890.972351 1344.950073,881.578857 1343.761963,871.847412 
	C1341.856323,871.734436 1340.241577,871.556152 1338.626709,871.555359 
	C1312.963501,871.542542 1287.299561,871.659363 1261.638062,871.451782 
	C1257.393677,871.417480 1256.439087,872.998901 1255.953369,876.791321 
	C1249.292480,928.806458 1242.479248,980.802124 1235.685181,1032.800171 
	C1235.450073,1034.599976 1235.024414,1036.374756 1234.692749,1038.132935 
	C1208.248657,1038.132935 1181.991333,1038.132935 1155.322144,1038.132935 
	C1157.366211,1022.949951 1159.326416,1008.145569 1161.357544,993.351013 
	C1165.863037,960.532959 1170.423218,927.722473 1174.925659,894.903992 
	C1179.428345,862.084656 1183.875122,829.257629 1188.369751,796.437134 
	C1193.564331,758.506592 1198.783081,720.579346 1203.996704,682.651489 
	C1204.245972,680.837708 1204.547119,679.031006 1204.869507,676.777466 
M1278.515137,795.808533 
	C1295.966064,795.808533 1313.416992,795.808533 1331.537598,795.808533 
	C1321.009521,717.997620 1310.571167,640.849182 1300.132812,563.700806 
	C1299.396118,563.699951 1298.659546,563.699097 1297.922852,563.698242 
	C1286.967163,640.905945 1276.011353,718.113586 1264.986572,795.807739 
	C1269.574341,795.807739 1273.548462,795.807739 1278.515137,795.808533 
z"/>
<path fill="#FDFEFE" opacity="1.000000" stroke="none" 
	d="
M908.606628,964.284058 
	C911.046082,971.987976 917.460510,975.150024 923.345093,978.699951 
	C925.560852,980.036560 928.359802,980.399292 930.883911,981.233032 
	C945.892944,986.190979 965.715271,977.482727 971.404480,962.893066 
	C972.982666,958.846008 973.207153,954.078735 973.212952,949.640747 
	C973.270264,906.145691 973.149780,862.650330 973.080383,819.155090 
	C973.077209,817.191467 973.079956,815.227844 973.079956,812.967957 
	C1001.099487,812.967957 1028.692505,812.967957 1056.954468,812.967957 
	C1056.954468,814.691711 1056.954468,816.461792 1056.954468,818.231934 
	C1056.954590,863.894043 1056.983521,909.556152 1056.882812,955.218018 
	C1056.876831,957.941650 1056.280396,960.858154 1055.192993,963.350891 
	C1050.940308,973.100281 1046.297729,982.678772 1041.953735,992.389526 
	C1036.111694,1005.448669 1025.039551,1013.215881 1013.403687,1020.123718 
	C997.027161,1029.845703 979.517090,1037.197388 960.881592,1041.262939 
	C944.665283,1044.800781 928.381409,1042.631226 912.237488,1039.912231 
	C885.126526,1035.345947 860.805237,1025.098877 841.812683,1004.449890 
	C825.085144,986.263489 816.699463,964.607666 816.681458,940.000793 
	C816.574341,793.515686 816.642334,647.030334 816.619507,500.545074 
	C816.617249,485.698547 821.084473,472.259369 828.132080,459.313843 
	C845.176453,428.005585 873.001709,412.035950 906.353210,404.344238 
	C915.443909,402.247711 925.137451,402.733398 934.559570,402.113403 
	C952.565430,400.928589 970.065369,403.154633 986.945862,409.798645 
	C1005.652344,417.161346 1021.764526,428.122772 1035.485962,442.914368 
	C1046.254395,454.522705 1051.279663,468.909698 1056.618042,483.203766 
	C1057.691284,486.077301 1057.754272,489.443542 1057.758789,492.583374 
	C1057.823486,537.245361 1057.798706,581.907532 1057.786865,626.569641 
	C1057.786621,627.386414 1057.679199,628.203125 1057.593750,629.419678 
	C1029.752075,629.419678 1002.014038,629.419678 973.570740,629.419678 
	C973.484741,627.727661 973.299988,625.822449 973.304016,623.917664 
	C973.398071,579.757446 973.977722,535.590881 973.374878,491.440430 
	C973.159485,475.667572 959.854858,460.241272 939.976257,460.790131 
	C926.041565,461.174896 917.025452,467.931885 911.207825,480.108246 
	C908.061707,486.693115 906.614441,493.420563 906.619934,500.776306 
	C906.727722,645.761658 906.701599,790.747070 906.693420,935.732483 
	C906.693176,939.897766 906.318848,944.081604 906.602417,948.223694 
	C906.961792,953.473816 907.816528,958.690002 908.606628,964.284058 
z"/>
<path fill="#FEFFFE" opacity="1.000000" stroke="none" 
	d="
M164.371536,844.035034 
	C164.242462,876.525391 164.073181,908.521057 164.000000,940.516968 
	C163.945694,964.259827 182.154800,980.577209 205.520401,976.827881 
	C218.687820,974.714966 228.488586,966.597351 234.863632,954.890381 
	C236.189713,952.455261 236.124207,949.078918 236.130798,946.135071 
	C236.427017,813.817566 236.671173,681.499878 236.893356,549.182251 
	C236.972260,502.187744 236.979462,455.193115 237.019211,408.198547 
	C237.020447,406.733795 237.019394,405.269043 237.019394,403.536591 
	C265.199097,403.536591 292.935272,403.536591 321.304382,403.536591 
	C321.304382,405.529572 321.304352,407.306671 321.304382,409.083740 
	C321.308533,587.396606 321.506836,765.710083 321.027832,944.021606 
	C320.977844,962.632629 314.706635,980.353210 301.163544,994.416443 
	C294.925659,1000.893982 289.118317,1007.883362 282.312469,1013.700806 
	C241.516602,1048.571655 182.104065,1059.200439 131.843735,1022.639221 
	C124.036102,1016.959656 116.448677,1010.976624 108.779381,1005.107849 
	C93.429970,993.361877 83.337921,978.335266 81.130714,958.862000 
	C79.994484,948.837524 79.321312,938.691528 79.412704,928.609253 
	C79.758575,890.451111 80.500816,852.296570 81.106270,814.140869 
	C81.129425,812.681946 81.271164,811.224854 81.375008,809.474121 
	C83.074463,809.392578 84.528847,809.246277 85.981155,809.264648 
	C110.475594,809.575012 134.969254,810.009338 159.464508,810.133545 
	C163.706024,810.155090 164.826263,811.459778 164.672592,815.549011 
	C164.322296,824.870117 164.443146,834.208862 164.371536,844.035034 
z"/>
<path fill="#FEFFFE" opacity="1.000000" stroke="none" 
	d="
M1033.178467,167.346954 
	C1034.193115,166.816635 1035.150757,166.621552 1036.108276,166.426453 
	C1035.957764,167.430222 1035.807251,168.433990 1035.656738,169.437744 
	C1034.811646,168.852554 1033.966431,168.267365 1033.178467,167.346954 
z"/>
<path fill="#FEFFFE" opacity="1.000000" stroke="none" 
	d="
M1088.684814,298.754791 
	C1088.185303,298.903961 1087.745239,298.805145 1087.305298,298.706360 
	C1087.502930,298.359009 1087.700562,298.011688 1087.898071,297.664368 
	C1088.180176,297.945160 1088.462402,298.225983 1088.684814,298.754791 
z"/>
<path fill="#FEFFFE" opacity="1.000000" stroke="none" 
	d="
M1023.639038,131.292603 
	C1023.773621,130.994766 1024.036255,130.833191 1024.298950,130.671631 
	C1024.121582,130.924042 1023.944336,131.176468 1023.639038,131.292603 
z"/>
<path fill="#FEFFFE" opacity="1.000000" stroke="none" 
	d="
M1392.426514,131.187561 
	C1391.936157,130.974411 1391.616211,130.599731 1391.363281,130.184250 
	C1391.340576,130.147034 1391.750732,129.846115 1391.959961,129.667648 
	C1392.178223,130.116776 1392.396484,130.565903 1392.426514,131.187561 
z"/>
<path fill="#FFFFFF" opacity="1.000000" stroke="none" 
	d="
M1496.266235,525.953979 
	C1496.868408,525.617798 1497.519653,525.570374 1498.170898,525.522949 
	C1498.177490,526.121887 1498.183960,526.720825 1498.190552,527.319763 
	C1497.565430,526.960754 1496.940430,526.601685 1496.266235,525.953979 
z"/>
<path fill="#038129" opacity="1.000000" stroke="none" 
	d="
M535.258179,496.581909 
	C547.607849,471.528137 569.308228,463.175903 592.260193,477.997467 
	C601.561768,484.004120 606.218872,494.051453 606.265015,505.334503 
	C606.432556,546.304565 606.384644,587.276123 606.196899,628.246033 
	C606.181641,631.584229 604.999512,635.168457 603.484192,638.200806 
	C599.167725,646.838745 594.479736,655.364136 586.672424,661.460083 
	C577.306885,668.772644 566.792175,670.540039 555.200256,667.919617 
	C546.008789,665.841919 540.395813,659.550598 535.300842,652.492249 
	C534.435364,651.293335 534.298096,649.366638 534.296692,647.775696 
	C534.254150,599.643433 534.259888,551.511047 534.314697,503.378754 
	C534.317139,501.241699 534.850708,499.105194 535.258179,496.581909 
z"/>
<path fill="#04812A" opacity="1.000000" stroke="none" 
	d="
M1278.018799,795.808105 
	C1273.548462,795.807739 1269.574341,795.807739 1264.986572,795.807739 
	C1276.011353,718.113586 1286.967163,640.905945 1297.922852,563.698242 
	C1298.659546,563.699097 1299.396118,563.699951 1300.132812,563.700806 
	C1310.571167,640.849182 1321.009521,717.997620 1331.537598,795.808533 
	C1313.416992,795.808533 1295.966064,795.808533 1278.018799,795.808105 
z"/>
</svg>